<?xml version="1.0" encoding="UTF-8" standalone="no"?>
<!-- Created with Inkscape (http://www.inkscape.org/) -->

<svg
   xmlns:dc="http://purl.org/dc/elements/1.1/"
   xmlns:cc="http://creativecommons.org/ns#"
   xmlns:rdf="http://www.w3.org/1999/02/22-rdf-syntax-ns#"
   xmlns:svg="http://www.w3.org/2000/svg"
   xmlns="http://www.w3.org/2000/svg"
   xmlns:sodipodi="http://sodipodi.sourceforge.net/DTD/sodipodi-0.dtd"
   xmlns:inkscape="http://www.inkscape.org/namespaces/inkscape"
   width="144"
   height="144"
   viewBox="0 0 38.099999 38.100001"
   version="1.1"
   id="svg8"
   inkscape:version="0.92.4 (5da689c313, 2019-01-14)"
   sodipodi:docname="FUIOS-Blangonga Icon.svg">
  <defs
     id="defs2" />
  <sodipodi:namedview
     id="base"
     pagecolor="#ffffff"
     bordercolor="#666666"
     borderopacity="1.0"
     inkscape:pageopacity="0.0"
     inkscape:pageshadow="2"
     inkscape:zoom="2.4665548"
     inkscape:cx="36.316903"
     inkscape:cy="56.454757"
     inkscape:document-units="px"
     inkscape:current-layer="layer2"
     showgrid="false"
     units="px"
     inkscape:window-width="1304"
     inkscape:window-height="745"
     inkscape:window-x="-8"
     inkscape:window-y="-8"
     inkscape:window-maximized="1"
     inkscape:snap-smooth-nodes="true"
     showguides="true"
     inkscape:guide-bbox="true">
    <inkscape:grid
       type="xygrid"
       id="grid865" />
  </sodipodi:namedview>
  <metadata
     id="metadata5">
    <rdf:RDF>
      <cc:Work
         rdf:about="">
        <dc:format>image/svg+xml</dc:format>
        <dc:type
           rdf:resource="http://purl.org/dc/dcmitype/StillImage" />
        <dc:title></dc:title>
      </cc:Work>
    </rdf:RDF>
  </metadata>
  <g
     inkscape:groupmode="layer"
     id="layer2"
     inkscape:label="Layer 2">
    <path
       style="fill:#817abc;fill-opacity:1;stroke:none;stroke-width:0.26458332px;stroke-linecap:butt;stroke-linejoin:miter;stroke-opacity:1"
       d="m 2.3812502,20.769792 h 5.0270832 v -2.38125 l -5.0270832,1.852083 z"
       id="path1065"
       inkscape:connector-curvature="0" />
    <path
       style="fill:#817abc;fill-opacity:1;stroke:none;stroke-width:0.26458332px;stroke-linecap:butt;stroke-linejoin:miter;stroke-opacity:1"
       d="m 20.108333,35.586458 c 0,0 1.852083,-0.264583 2.116667,-2.910416 1.058333,2.116667 0.264583,4.233333 -2.116667,4.233333 l -0.529166,-0.529166 z"
       id="path1017"
       inkscape:connector-curvature="0" />
    <path
       style="fill:#817abc;fill-opacity:1;stroke:none;stroke-width:0.26458332px;stroke-linecap:butt;stroke-linejoin:miter;stroke-opacity:1"
       d="m 18.520833,34.263542 c 0,0 1.852083,-0.79375 1.322917,-4.233334 2.38125,1.058334 1.322917,4.762501 -0.264583,5.027084 h -1.058334 z"
       id="path1015"
       inkscape:connector-curvature="0"
       sodipodi:nodetypes="ccccc" />
    <path
       style="fill:#817abc;fill-opacity:1;stroke:none;stroke-width:0.26458332px;stroke-linecap:butt;stroke-linejoin:miter;stroke-opacity:1"
       d="m 16.139583,32.411458 c 0,0 1.5875,-0.793749 0.79375,-2.645833 2.38125,0.79375 1.322917,4.233334 -0.79375,4.233334 l -0.529166,-0.79375 z"
       id="path1013"
       inkscape:connector-curvature="0"
       sodipodi:nodetypes="ccc" />
    <path
       style="fill:#cdb869;fill-opacity:1;stroke:none;stroke-width:0.26458332px;stroke-linecap:butt;stroke-linejoin:miter;stroke-opacity:1"
       d="m 8.9958334,29.501042 v 2.645833 h 0.79375 V 12.038542 c 0,0 0,-1.058333 -1.0583333,-1.058333 -1.0583333,0 -1.0583333,1.852083 -1.0583333,1.852083 v 14.022916 z"
       id="path1007"
       inkscape:connector-curvature="0" />
    <path
       style="fill:#f0f0d9;fill-opacity:1;stroke:none;stroke-width:0.26458332px;stroke-linecap:butt;stroke-linejoin:miter;stroke-opacity:1"
       d="m 5.2916668,25.796875 3.7041666,3.704167 V 12.567709 c 0,0 0,-0.79375 -0.79375,-0.79375 -0.79375,0 -0.79375,1.322916 -0.79375,1.322916 v 12.435417 z"
       id="path1005"
       inkscape:connector-curvature="0" />
    <path
       style="fill:#f0f0d9;fill-opacity:1;stroke:none;stroke-width:0.99999994px;stroke-linecap:butt;stroke-linejoin:miter;stroke-opacity:1"
       d="M 58 5.5 C 49 5.5 42.999997 21.5 41 21.5 L 26 21.5 C 24 21.5 22 23.5 22 24.5 L 22 26.5 L 22 33.5 L 35 37.5 L 37 40.5 C 38.999999 40.5 41 42.499999 41 44.5 L 41 133.5 C 41 136.5 44.999999 139.5 47 139.5 L 76 139.5 L 76 134.5 L 74 134.5 L 74 132.5 L 70 129.5 L 66 130.5 L 60 130.5 L 60 129.5 L 61 128.5 L 61 122.5 L 58 123.5 L 57 123.5 L 57 67.5 L 77 47.5 L 77 40.5 C 77 38.500003 75 38.5 75 38.5 L 69 38.5 C 66.999999 38.5 67 40.5 67 40.5 L 67 44.5 C 67 45.499999 68 45.5 68 45.5 L 70 45.5 C 71.000003 45.5 71 46.5 71 46.5 L 71 48.5 C 71 50.500001 69 50.5 69 50.5 L 64 50.5 C 62.000003 50.5 62 48.5 62 48.5 L 62 35.5 C 62 33.5 64 33.5 64 33.5 L 80 33.5 C 81.999997 33.5 82 35.5 82 35.5 L 82 50.5 L 62 70.5 L 62 94.5 C 62 98.500003 66 98.5 66 98.5 L 82 98.5 C 86.000003 98.5 86 94.5 86 94.5 L 86 61.5 L 91 61.5 L 91 69.5 L 106 69.5 L 106 56.5 C 106 53.5 109 53.5 109 53.5 L 120 53.5 C 123 53.5 123 56.5 123 56.5 L 123 68.5 C 123 70.500001 121 70.5 121 70.5 L 114 70.5 L 114 65.5 L 117 65.5 C 118 65.5 118 64.5 118 64.5 L 118 59.5 L 111 59.5 L 111 93.5 C 111 97.499999 115 97.5 115 97.5 L 142 97.5 L 142 90.5 L 129 77.5 L 129 45.5 C 129 42.5 126 42.5 126 42.5 L 116 42.5 C 114 42.5 114 44.5 114 44.5 L 114 46.5 L 106 46.5 L 98 46.5 C 93.999997 46.5 91 42.500001 91 40.5 L 91 29.5 C 91 17.5 78.000001 5.5 73 5.5 L 58 5.5 z "
       transform="scale(0.26458333)"
       id="path965" />
    <path
       style="fill:#ea9fa0;fill-opacity:1;stroke:none;stroke-width:0.26458332px;stroke-linecap:butt;stroke-linejoin:miter;stroke-opacity:1"
       d="m 0.52916683,12.567709 v 0.79375 H 7.1437501 V 25.003125 H 2.3812502 v 1.058333 h 5.5562499 c 0,0 0.5291667,0 0.5291667,-0.529166 0,-0.529167 0,-12.435417 0,-12.435417 0,0 0,-0.529166 -0.5291667,-0.529166 L 7.6729169,12.303125 H 0.79375017 Z"
       id="path959"
       inkscape:connector-curvature="0" />
    <path
       style="fill:#000000;stroke:none;stroke-width:0.26458332px;stroke-linecap:butt;stroke-linejoin:miter;stroke-opacity:1"
       d="m 5.2916668,8.8635417 1e-7,1.3229173 L 6.6145834,9.921875 8.7312502,8.8635417 H 7.1437501 L 6.3500001,8.334375 Z"
       id="path947"
       inkscape:connector-curvature="0"
       sodipodi:nodetypes="ccccccc" />
    <path
       style="opacity:1;fill:#000000;fill-opacity:0.66666667;stroke:none;stroke-width:0.52916664;stroke-linecap:round;stroke-linejoin:round;stroke-miterlimit:4;stroke-dasharray:none;stroke-dashoffset:0;stroke-opacity:1;paint-order:normal"
       d="m 4.7625001,8.598958 h 0.7937494 c 2e-7,0 3e-7,1e-7 3e-7,3e-7 v 1.5875007 c 0,0 -10e-8,0 -3e-7,0 H 4.7625001 c -2e-7,0 -3e-7,0 -3e-7,0 V 8.5989583 c 0,-2e-7 1e-7,-3e-7 3e-7,-3e-7 z"
       id="rect1067" />
    <path
       style="fill:#817abc;fill-opacity:1;stroke:none;stroke-width:0.26458332px;stroke-linecap:butt;stroke-linejoin:miter;stroke-opacity:1"
       d="m 2.9104168,7.0114584 h 3.4395833 c 0,0 0.79375,0.5291666 0.79375,1.8520833 l -4.2333332,10e-8 z"
       id="path945"
       inkscape:connector-curvature="0" />
    <path
       style="fill:#817abc;fill-opacity:1;stroke:none;stroke-width:0.26458332px;stroke-linecap:butt;stroke-linejoin:miter;stroke-opacity:1"
       d="m 9.7895834,10.715625 1e-7,-1.3229165 1.0583335,-0.2645835 h 2.645833 l -1.5875,1.5875 z"
       id="path953"
       inkscape:connector-curvature="0"
       sodipodi:nodetypes="cccccc" />
    <path
       style="fill:#d04a1c;fill-opacity:1;stroke:none;stroke-width:0.26458332px;stroke-linecap:butt;stroke-linejoin:miter;stroke-opacity:1"
       d="m 10.847917,9.128125 c 0,0 3.174999,-3.4395833 5.556249,-6.8791666 -3.439583,2.9104167 -8.7312491,6.8791667 -10.0541658,7.6729167 0,0 -2.1166667,0.5291669 -3.4395833,0.5291669 -1.3229167,0 -2.38125006,0.79375 -2.38125006,1.322917 0,0.529166 0,0.79375 0,0.79375 H 7.9375002 l 1.0583333,-1.852084 h 0.79375 z"
       id="path955"
       inkscape:connector-curvature="0" />
    <path
       style="fill:#5f1a0f;fill-opacity:0.99215686;stroke:none;stroke-width:0.26458332px;stroke-linecap:butt;stroke-linejoin:miter;stroke-opacity:1"
       d="M 4.7625001,9.921875 H 2.9104168 v 2.116667 h 1.3229167 v -1.058333 h 1.0583333 v 1.058333 H 6.3500001 V 9.921875 Z"
       id="path949"
       inkscape:connector-curvature="0" />
    <path
       style="fill:#817abc;fill-opacity:1;stroke:none;stroke-width:0.26458332px;stroke-linecap:butt;stroke-linejoin:miter;stroke-opacity:1"
       d="m 5.8208335,3.0427084 c 0,0 0,-0.2645833 0.2645833,-0.2645833 0.2645833,0 4.4979162,0 4.4979162,0 0,0 0.264584,0 0.264584,0.2645833 0,0.2645834 0,1.5875 0,1.5875 0,0 0,0.2645833 -0.264584,0.2645833 -0.264583,0 -4.4979162,0 -4.4979162,0 0,0 -0.2645833,0 -0.2645833,-0.2645833 0,-0.2645833 0,-1.5875 0,-1.5875 z"
       id="path957"
       inkscape:connector-curvature="0" />
    <path
       style="fill:#f0f0d5;fill-opacity:1;stroke:none;stroke-width:0.26458332px;stroke-linecap:butt;stroke-linejoin:miter;stroke-opacity:1"
       d="m 2.6458335,14.419792 v 14.2875 c 0,0 -2.11666667,-3.175 -2.11666667,-6.879167 0,-3.704167 0,-7.408333 0,-7.408333 z"
       id="path963"
       inkscape:connector-curvature="0" />
    <path
       style="fill:#8179bc;fill-opacity:1;stroke:none;stroke-width:0.26458332px;stroke-linecap:butt;stroke-linejoin:miter;stroke-opacity:1"
       d="m 28.310416,19.976042 c 0,0 0,2.645833 0,3.439583 0,0.79375 -0.79375,2.645833 -2.116666,2.645833 -1.322917,0 -2.38125,-1.5875 -2.38125,-2.910416 0,-1.322917 0,-3.175 0,-3.175 z"
       id="path967"
       inkscape:connector-curvature="0" />
    <path
       style="fill:#8179bc;fill-opacity:1;stroke:none;stroke-width:0.26458332px;stroke-linecap:butt;stroke-linejoin:miter;stroke-opacity:1"
       d="m 29.104166,25.796875 v 1.322917 H 26.9875 c 0,-0.529167 0.793749,-1.322917 2.116666,-1.322917 z"
       id="path969"
       inkscape:connector-curvature="0" />
    <path
       style="fill:#817abc;fill-opacity:1;stroke:none;stroke-width:0.26458332px;stroke-linecap:butt;stroke-linejoin:miter;stroke-opacity:1"
       d="m 37.570833,27.648958 v 7.672917 c 0,0 0,0.264583 -0.264583,0.264583 -0.264584,0 -2.910417,0 -3.704167,0 -0.79375,0 -3.96875,-1.058333 -3.96875,-1.5875 0,-0.529166 0.264583,-1.5875 1.5875,-1.5875 1.322917,0 3.439583,0 3.96875,0 0.529167,0 0.79375,-0.529166 0.79375,-1.322916 0,-0.79375 0,-3.439584 0,-3.439584 z"
       id="path971"
       inkscape:connector-curvature="0" />
    <path
       style="fill:#cdb869;fill-opacity:1;stroke:none;stroke-width:0.26458332px;stroke-linecap:butt;stroke-linejoin:miter;stroke-opacity:1"
       d="m 26.458333,35.586458 1.852083,-1.852083 h -1.852083 z"
       id="path973"
       inkscape:connector-curvature="0" />
    <path
       style="fill:#cdb869;fill-opacity:1;stroke:none;stroke-width:0.26458332px;stroke-linecap:butt;stroke-linejoin:miter;stroke-opacity:1"
       d="M 28.310417,37.438542 30.1625,35.586459 h -1.852083 z"
       id="path973-0"
       inkscape:connector-curvature="0" />
    <path
       style="fill:#cdb869;fill-opacity:1;stroke:none;stroke-width:0.26458332px;stroke-linecap:butt;stroke-linejoin:miter;stroke-opacity:1"
       d="m 31.220833,37.703125 1.852083,-1.852083 h -1.852083 z"
       id="path973-0-1"
       inkscape:connector-curvature="0" />
    <path
       style="opacity:1;fill:#cdb869;fill-opacity:1;stroke:none;stroke-width:0.52916664;stroke-linecap:round;stroke-linejoin:round;stroke-miterlimit:4;stroke-dasharray:none;stroke-dashoffset:0;stroke-opacity:1;paint-order:normal"
       d="M 17.991667,20.240625 H 19.05 v 4.497917 h -1.058333 z"
       id="rect1009" />
    <path
       style="opacity:1;fill:#cdb869;fill-opacity:1;stroke:none;stroke-width:0.52916664;stroke-linecap:round;stroke-linejoin:round;stroke-miterlimit:4;stroke-dasharray:none;stroke-dashoffset:0;stroke-opacity:1;paint-order:normal"
       d="m 20.372917,20.240625 h 1.322917 v 4.497917 h -1.322917 z"
       id="rect1011" />
    <path
       style="opacity:1;fill:#817abc;fill-opacity:1;stroke:none;stroke-width:0.52916664;stroke-linecap:round;stroke-linejoin:round;stroke-miterlimit:4;stroke-dasharray:none;stroke-dashoffset:0;stroke-opacity:1;paint-order:normal"
       d="m 35.454166,11.509375 h 2.116667 v 8.202083 h -2.116667 z"
       id="rect1021" />
    <path
       style="fill:#817abc;fill-opacity:1;stroke:none;stroke-width:0.26458332px;stroke-linecap:butt;stroke-linejoin:miter;stroke-opacity:1"
       d="M 37.570833,10.186459 H 35.454166 V 5.9531251 h -6.614583 c 0,0 1.058333,-1.8520833 2.38125,-1.8520833 1.322917,0 6.35,0 6.35,0 z"
       id="path1023"
       inkscape:connector-curvature="0" />
    <path
       style="fill:#f0f0d9;fill-opacity:1;stroke:none;stroke-width:0.26458332px;stroke-linecap:butt;stroke-linejoin:miter;stroke-opacity:1"
       d="m 29.36875,3.8364584 c 0,0 -0.79375,0.5291667 -1.5875,2.1166667 h -1.058333 c 0,0 -1.058334,0 -1.058334,-1.0583333 V 2.7781251 c 0,-0.79375 1.322917,-2.38124994 3.439584,-2.38124994 0.264583,0 0.264583,0.26458334 0.264583,0.26458334 z"
       id="path1025"
       inkscape:connector-curvature="0"
       sodipodi:nodetypes="cccssccc" />
    <path
       style="opacity:1;fill:#cdb869;fill-opacity:1;stroke:none;stroke-width:0.52916664;stroke-linecap:round;stroke-linejoin:round;stroke-miterlimit:4;stroke-dasharray:none;stroke-dashoffset:0;stroke-opacity:1;paint-order:normal"
       d="m 4.4979167,14.419791 h 1.3229166 v 1.852084 H 4.4979167 Z"
       id="rect1027" />
    <path
       style="opacity:1;fill:#cdb869;fill-opacity:1;stroke:none;stroke-width:0.52916664;stroke-linecap:round;stroke-linejoin:round;stroke-miterlimit:4;stroke-dasharray:none;stroke-dashoffset:0;stroke-opacity:1;paint-order:normal"
       d="m 2.6458337,14.419791 h 1.3229167 v 1.852084 H 2.6458337 Z"
       id="rect1027-0" />
    <path
       style="opacity:1;fill:#cdb869;fill-opacity:1;stroke:none;stroke-width:0.52916664;stroke-linecap:round;stroke-linejoin:round;stroke-miterlimit:4;stroke-dasharray:none;stroke-dashoffset:0;stroke-opacity:1;paint-order:normal"
       d="m 4.7624998,22.621876 h 1.3229168 v 1.322916 H 4.7624998 Z"
       id="rect1027-5" />
    <path
       style="opacity:1;fill:#cdb869;fill-opacity:1;stroke:none;stroke-width:0.52916664;stroke-linecap:round;stroke-linejoin:round;stroke-miterlimit:4;stroke-dasharray:none;stroke-dashoffset:0;stroke-opacity:1;paint-order:normal"
       d="m 2.6458335,22.621876 h 1.3229167 v 1.322916 H 2.6458335 Z"
       id="rect1027-5-4" />
  </g>
</svg>
