<?xml version="1.0" encoding="UTF-8" standalone="no"?>
<!-- Created with Inkscape (http://www.inkscape.org/) -->

<svg
   xmlns:dc="http://purl.org/dc/elements/1.1/"
   xmlns:cc="http://creativecommons.org/ns#"
   xmlns:rdf="http://www.w3.org/1999/02/22-rdf-syntax-ns#"
   xmlns:svg="http://www.w3.org/2000/svg"
   xmlns="http://www.w3.org/2000/svg"
   xmlns:sodipodi="http://sodipodi.sourceforge.net/DTD/sodipodi-0.dtd"
   xmlns:inkscape="http://www.inkscape.org/namespaces/inkscape"
   width="320"
   height="320"
   viewBox="0 0 84.666665 84.666669"
   version="1.1"
   id="svg8"
   inkscape:version="0.92.4 (5da689c313, 2019-01-14)"
   sodipodi:docname="MHRise-Goss Harag Icon.svg">
  <defs
     id="defs2" />
  <sodipodi:namedview
     id="base"
     pagecolor="#ffffff"
     bordercolor="#666666"
     borderopacity="1.0"
     inkscape:pageopacity="0.0"
     inkscape:pageshadow="2"
     inkscape:zoom="1.4"
     inkscape:cx="181.26353"
     inkscape:cy="183.53711"
     inkscape:document-units="px"
     inkscape:current-layer="svg8"
     showgrid="false"
     units="px"
     inkscape:lockguides="false"
     inkscape:window-width="1304"
     inkscape:window-height="745"
     inkscape:window-x="-8"
     inkscape:window-y="-8"
     inkscape:window-maximized="1" />
  <metadata
     id="metadata5">
    <rdf:RDF>
      <cc:Work
         rdf:about="">
        <dc:format>image/svg+xml</dc:format>
        <dc:type
           rdf:resource="http://purl.org/dc/dcmitype/StillImage" />
        <dc:title></dc:title>
      </cc:Work>
    </rdf:RDF>
  </metadata>
  <g
     inkscape:groupmode="layer"
     id="layer2"
     inkscape:label="Layer 2">
    <path
       style="fill:none;fill-opacity:1;stroke:#000000;stroke-width:1.05833334;stroke-linecap:round;stroke-linejoin:round;stroke-opacity:1;stroke-miterlimit:4;stroke-dasharray:none"
       d="m 40.131249,4.1088108 c -0.276847,0.00749 -0.532522,0.023003 -0.764297,0.048059 -3.708365,0.4009041 -9.488288,3.9421377 -11.392585,4.2762247 -0.944051,0.165623 -2.446035,1.4238335 -3.74964,2.7884615 -0.107098,-0.06621 -0.198488,-0.108357 -0.270269,-0.122475 -0.330481,-0.255109 -1.476367,-0.02487 -1.559079,0.157096 -0.0647,0.142333 0.263996,0.381003 0.818039,1.091925 -0.84459,1.001823 -1.467303,1.914512 -1.553393,2.332672 -0.153868,0.747356 -0.722394,1.645497 -1.096576,2.178164 -0.131418,-0.548502 -0.28375,-1.076169 -0.451133,-1.551329 -0.73233,-2.078868 -2.385827,-4.252603 -2.952792,-4.276225 -0.216829,-0.009 -0.637733,0.218311 -1.085205,0.521933 -0.05576,-0.07057 -0.110884,-0.146949 -0.166915,-0.214458 -0.329766,-0.397298 -1.157552,0.236162 -1.157552,0.89762 0,0.06219 0.03672,0.168331 0.0894,0.29404 -0.202245,0.187939 -0.351488,0.348477 -0.396359,0.438216 -0.0892,0.178398 1.10889,1.462106 2.479437,3.133659 0.521359,0.861782 1.047798,1.755799 1.487247,2.59054 0.709877,3.959453 -1.044903,6.74129 -1.734262,7.049699 C 14.472373,20.947954 9.4037794,14.204371 8.3967514,13.94542 7.2274466,13.644743 6.6594152,14.446814 6.7596421,15.616119 c 0.1002268,1.169305 -0.6011016,1.770851 -1.0020062,2.706296 -0.4009046,0.935442 1.5509584,1.733227 2.0706741,2.063956 0.3716152,0.236482 1.5835524,1.188543 2.391587,1.827279 0.328721,0.28331 0.616593,0.516953 0.797367,0.629935 0.493615,0.53045 1.138079,1.432357 1.809708,2.414839 0.285252,1.555629 0.474723,3.390665 -0.08681,3.854545 -0.740775,0.611942 -2.9717606,2.340965 -4.8374329,1.357025 -0.4088792,-0.722808 -0.6650752,-1.224733 -0.6650752,-1.224733 0,0 -0.1179698,3.094681 1.1813222,5.126302 1.2992947,2.031622 2.5511919,3.260117 1.6298759,3.732588 -0.9213164,0.472469 -2.7164826,0.921171 -5.1733266,0.306959 1.2610888,2.633401 1.6357044,10.845345 7.6961706,11.920718 -0.254092,-1.323139 -0.0016,-2.793371 0.595313,-3.794083 0.803198,-1.346541 1.837835,-0.05426 3.444232,-0.05426 -0.134004,-0.703569 -0.114425,-1.539335 0.06614,-2.320787 0.992971,-0.12083 2.627001,-0.141349 3.127976,0.957564 0.0709,0.155509 0.105143,0.333221 0.110588,0.526066 -0.290087,0.464137 -0.535384,0.973177 -0.744657,1.474329 -0.634767,1.520098 -0.818676,2.639089 -1.937866,2.538863 -1.119193,-0.100225 -2.104758,-1.478204 -2.672707,-2.789494 -1.035667,1.812422 -0.65156,4.309789 -0.350883,4.877739 0.0926,0.174905 0.270352,0.288038 0.468189,0.367419 0.289985,0.340563 0.660889,0.659291 1.057301,0.847492 -0.611248,0.08687 -1.312296,0.07759 -2.119252,-0.07028 0.0789,0.05529 0.159102,0.105961 0.239263,0.155546 -0.496054,-0.218289 -0.806154,-0.438732 -0.806154,-0.438732 0.73233,1.866257 1.929083,2.395717 1.929083,2.395717 0,0 0.07585,0.44263 0.23151,1.061953 -0.252087,0.155311 -1.616265,0.951281 -3.672644,1.193208 0,0 -0.707567,0.164777 -1.420069,0.419097 0.284623,-0.406286 0.475424,-0.699701 0.475424,-0.699701 -3.7325136,1.181176 -7.0874223,4.630208 -7.0874223,4.630208 0,0 1.239856,-0.22443 2.426208,-0.527098 0.140335,0.937451 0.3799125,2.724195 0.8526621,3.256132 -0.2928408,0.453313 -0.5710079,0.972746 -0.8216556,1.570445 0.5749396,-0.531545 1.1558958,-0.96792 1.7120394,-1.342035 0.7521522,0.167605 1.6940979,0.599704 2.1626591,1.014925 -0.2207101,0.316551 -0.3902577,0.685176 -0.4495853,1.106393 0,0 0.8034236,-0.992114 1.4412566,-1.393714 0.425408,-0.267851 0.627052,-0.678828 0.716235,-0.925526 0.19498,-0.115514 0.396425,-0.222927 0.606682,-0.302823 1.181174,-0.448848 2.643248,-1.694987 2.643248,-1.694987 0.471972,-0.225727 1.636782,-0.507715 2.49959,-0.701765 0.565166,1.903933 1.024742,3.925858 1.024742,3.925858 0,0 0.313042,-0.967774 0.575159,-1.777669 2.097646,-5.712238 5.498698,-7.637285 8.943123,-9.531718 2.034461,-1.118955 3.383659,-2.320716 4.167188,-4.090191 1.962692,-2.152668 3.168737,-5.437042 3.353284,-7.251753 0.06988,-0.687152 0.258056,-1.179753 0.472839,-1.534789 -0.03184,2.333418 0.03162,6.28977 -0.622702,8.411889 -0.729427,2.365719 -3.236902,5.352939 -4.084505,6.321576 0.359603,-1.609799 1.060402,-2.674771 1.060402,-2.674771 -2.53906,2.03793 -2.906672,5.345594 -3.073714,6.047177 -0.167045,0.701582 -1.837614,1.637109 -1.837614,1.637109 0,0 -0.403741,1.165894 -1.419553,2.087211 -0.501142,0.454525 -1.949825,1.334529 -3.202387,2.177645 -0.288091,-0.220374 -0.584528,-0.386927 -0.856795,-0.42323 -0.443552,-0.05914 -0.808011,0.248975 -1.065569,0.699698 -0.57377,-0.04241 -1.184455,0.0025 -1.807641,0.202573 -2.706103,0.868627 -4.543391,5.24501 -4.543391,7.984524 1.336347,-0.668173 4.643646,-4.910994 5.979996,-5.612577 0.0633,-0.03323 0.13883,-0.06456 0.206706,-0.09715 0.399018,0.6306 1.218041,1.49402 2.030883,2.325439 -1.639408,1.221155 -2.204,2.704314 -2.204,4.052467 0,1.77066 -0.03368,3.4745 3.57446,5.913334 0,0 -0.94193,-2.933279 -0.467672,-4.877739 0.220461,-0.903894 0.722217,-1.816418 1.293976,-2.636531 0.83375,0.993114 3.199127,2.746317 5.410007,2.92127 0.175572,1.304306 0.569423,2.657623 1.414383,3.356901 1.937702,1.603616 5.044654,0.501261 5.044654,0.501261 0,0 -2.271855,-0.334074 -3.541387,-2.572454 -1.269529,-2.238383 0.367422,-4.610571 0.367422,-4.610571 0,0 -0.34979,0.151559 -0.753959,0.479042 -0.148919,-0.320413 -0.44431,-1.020355 -0.548805,-1.751833 -0.141742,-0.992188 2.776207,-2.953158 3.957381,-3.260265 0.0371,-0.0096 0.09649,-0.02994 0.138494,-0.04186 -0.02084,0.01437 -0.04159,0.02873 -0.05581,0.04186 -0.307105,0.283483 1.251751,2.716776 2.102196,2.740401 0.850448,0.02363 2.291628,-1.110086 3.000333,-0.87385 0.70871,0.236233 1.889879,2.314959 2.149739,3.94498 0.259858,1.630021 -1.653865,2.598364 -3.260264,2.527493 -1.606399,-0.07087 -4.157369,-0.424778 -4.157369,-0.424778 0,0 3.070984,2.834672 6.68538,2.62206 1.751222,-0.103012 2.89424,-0.323561 3.678328,-0.643371 0.108334,-0.02396 0.217493,-0.05054 0.327628,-0.08113 1.804069,-0.501129 1.870845,-3.173714 1.804025,-4.844147 -0.06682,-1.670434 1.503291,-2.272189 6.180502,-2.840138 1.080548,0.187952 3.988207,0.357351 6.226492,0.281638 1.146123,0.97115 3.299095,1.114891 5.934523,0.152961 1.102479,-0.283977 3.55796,1.553242 3.708299,2.288233 0.03226,0.157726 0.02675,0.364715 -0.01292,0.603581 -0.114868,0.591198 -1.176557,1.496856 -1.199925,1.987475 -0.02017,0.424093 -1.340175,1.734638 -1.741495,2.124417 -1.398778,0.805518 -3.045381,0.917334 -3.794085,0.930693 -0.935451,0.01671 -1.202966,1.352941 -0.952397,1.553395 0.250571,0.200448 2.023134,0.140041 2.023134,0.140041 0,0 6.024438,0.708557 8.174177,0.141595 1.149805,-0.303247 1.647108,-0.788948 1.806607,-1.261938 0.560131,-0.45229 1.073481,-1.086975 1.098643,-1.903762 0.04725,-1.535528 -0.03217,-1.896848 0.330729,-2.409153 0.199231,-0.149424 0.402733,-0.333542 0.603062,-0.526584 -0.02747,0.03195 -0.0832,0.101285 -0.0832,0.101285 0,0 1.181327,-0.377902 1.677416,-0.732253 0,0 -0.04723,0.826672 -0.897618,1.960602 0,0 2.14974,-1.346761 2.14974,-2.929535 0,-1.582778 -2.740472,-4.583033 -3.661794,-5.551602 -0.921308,-0.968562 -1.866331,-1.252042 -2.078942,-1.653645 -0.190781,-0.360363 1.230402,-2.472614 1.218014,-5.189347 0.128347,-0.09063 0.261139,-0.183812 0.432015,-0.299723 0.159072,-0.0098 2.391227,-0.175945 2.810163,-1.835547 0.02621,-0.103844 0.04736,-0.215598 0.06459,-0.333311 0.08686,1.473477 0.119886,3.278243 0.05219,5.478216 1.01387,-6.083228 0.367845,-9.408618 -0.521415,-10.723893 -0.180527,-1.4331 -0.52882,-3.089328 -1.215948,-3.541384 -0.345051,-0.227008 -0.867217,-0.693428 -1.443323,-1.30483 -1.473512,-2.563458 -2.995613,-6.367164 -3.30264,-8.580356 0.235151,-1.015156 0.652483,-2.059471 1.254188,-3.045809 1.445728,-1.127016 4.045815,-1.860587 7.768,-2.136304 -1.769576,-0.511212 -3.81182,-2.593456 -5.278747,-4.358907 -0.272939,-0.838086 -0.476004,-1.670232 -1.002006,-2.623611 -0.452713,-0.820544 -1.31993,-2.051354 -2.305802,-3.42098 -0.343921,-0.914747 -0.689255,-1.817735 -0.967901,-2.425692 -0.664694,-1.450248 -2.259931,-4.096832 -4.239016,-5.134571 -0.844482,-1.217276 -1.819175,-2.573496 -2.67684,-3.82974 1.123521,0.07249 3.299708,0.127357 4.175971,-0.456819 C 67.386665,11.364009 65.4148,11.057931 63.829014,10.830369 62.900557,9.369314 62.372483,8.2741327 62.886436,8.1659316 64.155968,7.8986625 66.6614,5.4596368 66.6614,5.4596368 c 0,0 -5.913318,1.0690812 -9.82214,0.6681763 C 53.17476,5.7519616 44.283924,3.9964965 40.131249,4.1088108 Z m 4.103624,61.3487082 c 2.458135,1.305219 4.5965,4.114716 5.691643,4.77542 -0.380032,0.164579 -0.709674,0.362791 -0.99477,0.576194 -2.529745,0.694351 -5.263166,0.08552 -6.164482,-1.073322 -0.992188,-1.275668 -2.858149,-2.976415 -3.590481,-2.787425 -0.0036,9.39e-4 -0.01077,0.0032 -0.01447,0.0041 0.02592,-0.0099 0.0234,-0.0093 0.04909,-0.01912 -0.0027,0.0011 -0.03462,0.01499 -0.03462,0.01499 0,0 2.546419,-0.774838 5.05809,-1.490867 z m 26.351881,8.033618 c -0.01068,0.06093 -0.02392,0.123595 -0.03928,0.188622 0.0071,-0.03602 0.03779,-0.180949 0.03928,-0.188622 z"
       id="path943-4"
       inkscape:connector-curvature="0" />
    <path
       style="fill:#bfcecb;fill-opacity:1;stroke:none;stroke-width:0.26458332px;stroke-linecap:butt;stroke-linejoin:miter;stroke-opacity:1"
       d="m 30.380025,75.88556 c -2.505652,-0.100224 -5.278573,-2.338607 -5.813112,-3.240643 -0.534539,-0.902033 -4.109269,-3.975634 -4.242904,-5.011303 -0.133635,-1.035669 0.467722,-2.772921 1.469982,-2.639285 1.002261,0.133633 2.338609,2.004518 2.338609,2.004518 l 6.715147,8.418994 z"
       id="path943"
       inkscape:connector-curvature="0" />
    <path
       style="fill:#a0bcbd;fill-opacity:1;stroke:none;stroke-width:0.26458332px;stroke-linecap:butt;stroke-linejoin:miter;stroke-opacity:1"
       d="m 54.634733,30.182473 7.483547,11.225318 -4.209497,18.708868 -11.191909,3.975634 -5.626436,2.112248 c 0,0 -3.76795,1.500092 -4.949127,1.807197 -1.181174,0.307107 -4.098679,2.267857 -3.956936,3.260045 0.14174,0.992187 0.637834,1.937128 0.637834,1.937128 l -1.228424,2.69308 c 0,0 -2.504091,-0.330729 -3.543525,-1.795386 -1.039436,-1.464659 -3.189175,-2.504093 -3.189175,-2.504093 l -2.291481,1.724517 0.566965,-2.385975 c 0,0 -1.74814,-2.976563 -2.480469,-3.543525 -0.732329,-0.566965 4.181362,-3.236423 5.197173,-4.157739 1.015811,-0.921317 1.419745,-2.087462 1.419745,-2.087462 l 2.596253,0.103087 0.874069,-4.677455 c 0,0 3.590774,-3.921504 4.464844,-6.756326 0.874069,-2.83482 0.466804,-8.947385 0.717682,-10.084276 0.250881,-1.136891 18.708867,-9.554885 18.708867,-9.554885 z"
       id="path941"
       inkscape:connector-curvature="0" />
    <path
       style="fill:#6e5956;fill-opacity:1;stroke:none;stroke-width:0.26458332px;stroke-linecap:butt;stroke-linejoin:miter;stroke-opacity:1"
       d="m 49.689396,70.563078 c -2.716705,1.063059 -5.9295,0.448847 -6.921688,-0.826823 -0.992187,-1.27567 -2.858444,-2.976563 -3.590774,-2.787573 -0.73233,0.188986 -2.645833,0.779576 -2.952941,1.063056 -0.307104,0.283482 1.252048,2.716704 2.102493,2.740329 0.850448,0.02363 2.291482,-1.110305 3.000187,-0.874069 0.708705,0.236233 1.889879,2.315104 2.14974,3.945125 0.259858,1.630021 -1.653646,2.598586 -3.260045,2.527715 -1.606399,-0.07087 -4.157739,-0.425222 -4.157739,-0.425222 0,0 3.071058,2.83482 6.685454,2.622208 3.614397,-0.212611 4.653833,-0.921316 5.24442,-1.984375 0.590587,-1.063056 0.283483,-4.51209 0.283483,-4.51209 z"
       id="path939"
       inkscape:connector-curvature="0" />
    <path
       style="fill:#6e5956;fill-opacity:1;stroke:none;stroke-width:0.26458332px;stroke-linecap:butt;stroke-linejoin:miter;stroke-opacity:1"
       d="m 72.958555,63.830377 c 0,0 -0.09449,2.69308 1.039434,3.307291 1.133928,0.614212 3.307292,2.787576 2.976563,3.543528 -0.330729,0.755951 -12.000743,-0.897694 -13.843378,-0.472469 -1.842633,0.425222 -6.89418,0.191807 -8.396214,-0.06946 -1.502037,-0.261268 -3.415543,0.140329 -4.384106,0.234825 -0.968563,0.09449 -3.801023,-4.177051 -7.008257,-5.312947 0,0 8.251947,-1.770659 9.621704,-2.973372 1.369756,-1.202713 6.314242,-6.681738 6.314242,-6.681738 l 12.595077,1.737252 z"
       id="path937"
       inkscape:connector-curvature="0" />
    <path
       style="fill:#948580;fill-opacity:1;stroke:none;stroke-width:0.26458332px;stroke-linecap:butt;stroke-linejoin:miter;stroke-opacity:1"
       d="m 57.908785,60.116659 c 0,0 1.002261,0.902036 2.539061,0.367495 1.536801,-0.534537 2.037929,-1.804069 2.772921,-1.937702 0.734991,-0.133636 1.069078,0.868624 1.870887,0.768397 0.801809,-0.100224 4.944486,0.03341 5.646068,0.734992 0.701582,0.701582 -1.23612,2.605878 -0.601356,3.441096 0.634765,0.835216 2.739512,2.27179 2.739512,2.27179 0,0 1.687142,-5.011304 2.238383,-5.412206 0.551244,-0.400904 2.096527,-1.41021 2.096527,-1.41021 l 0.07087,-5.57515 -6.874444,-8.62258 -11.622767,-8.598958 -2.55134,0.236233 3.307291,10.394347 v 7.984746 z"
       id="path935"
       inkscape:connector-curvature="0" />
    <path
       style="fill:#a0bcbd;fill-opacity:1;stroke:none;stroke-width:0.26458332px;stroke-linecap:butt;stroke-linejoin:miter;stroke-opacity:1"
       d="m 64.926562,80.201468 c 0,0 -1.772611,0.06063 -2.023176,-0.13982 -0.250566,-0.200453 0.01669,-1.5368 0.952148,-1.553506 0.935442,-0.01669 3.274052,-0.183748 4.777441,-1.670433 1.503391,-1.486686 2.121453,-3.240644 1.971114,-3.975635 -0.150339,-0.734991 -2.605881,-2.572472 -3.708368,-2.288495 -1.102485,0.283975 -3.257344,0.451017 -4.376537,0.23386 -1.11919,-0.217157 -2.204971,-1.069078 -2.188268,-1.804069 0.01669,-0.734992 1.784448,-5.692709 4.312163,-8.763767 2.527716,-3.071056 5.929501,-4.559337 7.843007,-4.29948 1.913504,0.259861 2.362351,2.102493 2.362351,2.102493 0,0 -1.228424,-1.653646 -3.779764,-1.015809 -2.55134,0.637834 -5.504277,2.220608 -6.496465,5.102677 -0.992187,2.882069 0.09449,7.20517 1.133928,7.583149 1.039436,0.377976 8.811572,-0.685083 10.441593,0.28348 1.630024,0.968565 2.409597,2.385975 2.409597,2.385975 0,0 -1.181174,1.606402 -2.220608,2.385976 -0.362908,0.512306 -0.283482,0.874069 -0.330729,2.409597 -0.04725,1.535528 -1.819011,2.433222 -2.385976,2.669458 -0.566965,0.236233 -6.307478,0.236233 -6.307478,0.236233 z"
       id="path933"
       inkscape:connector-curvature="0"
       sodipodi:nodetypes="cccsscscscccscscccccc" />
    <path
       style="fill:#bbb6b2;fill-opacity:1;stroke:none;stroke-width:0.26458332px;stroke-linecap:butt;stroke-linejoin:miter;stroke-opacity:1"
       d="m 56.37485,37.797269 c 5.149924,0.09449 7.323289,7.795757 9.827379,8.031993 2.504094,0.236236 5.433409,2.976562 6.898066,4.015997 1.464659,1.039434 3.449034,3.401784 3.354538,4.441219 -0.09449,1.039436 -1.22842,1.559152 -1.039434,2.362353 0.188989,0.803198 1.417413,1.748139 1.27567,2.031622 -0.14174,0.283482 -1.025564,1.269164 -1.025564,1.269164 0,0 2.405424,-0.116933 2.839738,-1.837479 0.434314,-1.720548 -0.413094,-5.502431 -0.916482,-6.11714 -0.503386,-0.614712 -5.297533,-6.294189 -5.297533,-6.294189 l -4.827555,-9.604999 -4.677217,-7.082642 -6.781964,2.472243 -1.002263,1.80407 z"
       id="path927"
       inkscape:connector-curvature="0" />
    <path
       style="fill:#bba4b4;fill-opacity:1;stroke:none;stroke-width:0.26458332px;stroke-linecap:butt;stroke-linejoin:miter;stroke-opacity:1"
       d="m 15.884151,44.293734 c 0,0 3.189174,-0.779576 3.921503,0.826823 0.732329,1.606399 -2.362352,5.504278 -2.362352,5.504278 l 5.480655,0.614211 3.543527,-5.551527 -0.543341,-5.740511 -9.165922,0.307105 -1.582776,3.519903 z"
       id="path925"
       inkscape:connector-curvature="0" />
    <path
       style="fill:#a0bcbd;fill-opacity:1;stroke:none;stroke-width:0.26458332px;stroke-linecap:butt;stroke-linejoin:miter;stroke-opacity:1"
       d="m 14.978619,55.005128 c 0,0 -1.196961,-0.529661 -1.92929,-2.395918 0,0 1.987046,1.429721 4.017333,0.608555 2.030287,-0.821166 3.235086,-5.191516 4.67612,-5.75848 1.441034,-0.566965 3.945126,0.259858 5.24442,-1.842634 1.299293,-2.102493 -2.22061,-5.079055 -2.22061,-5.079055 0,0 -1.370164,0.992187 -2.62221,1.015811 -1.252046,0.02362 -2.645834,-0.496094 -3.472657,-0.283483 -0.826823,0.212612 -2.078869,1.110305 -2.267857,2.385975 -0.188988,1.27567 -0.153553,2.504092 -0.153553,2.504092 0,0 -2.031622,-0.614211 -2.49228,-0.909505 -0.460659,-0.295294 -1.842634,4.382162 -1.842634,4.382162 0,0 -2.8820686,-0.87407 -4.3467266,-3.567151 -1.464657,-2.69308 -1.842634,-6.850818 -1.842634,-6.850818 0,0 4.110492,-0.212612 5.1971726,-1.204799 1.086682,-0.992188 9.071429,-3.260045 9.071429,-3.260045 l 0.188988,-6.023995 6.803572,-1.74814 2.645833,8.598958 2.362351,7.9375 -2.267857,7.134301 -12.520461,5.953125 c 0,0 -1.710614,-0.544085 -2.228449,-1.596456 z"
       id="path923"
       inkscape:connector-curvature="0" />
    <path
       style="fill:#a0bcbd;fill-opacity:1;stroke:none;stroke-width:0.26458332px;stroke-linecap:butt;stroke-linejoin:miter;stroke-opacity:1"
       d="m 11.537523,57.260217 c 0,0 -1.8427322,0.428048 -2.575061,0.971389 -0.7323288,0.54334 -3.2600447,1.771763 -3.1183037,2.338726 0.1417412,0.566965 0.4252232,3.945128 1.2284225,3.921503 0.8031996,-0.02363 2.3623514,0.637836 2.8820687,1.204799 0,0 1.0158105,-1.181174 2.1969865,-1.63002 1.181176,-0.448847 2.643235,-1.694867 2.643235,-1.694867 l 1.679868,-1.683296 -1.157552,-2.69308 -0.614212,-0.448847 z"
       id="path919"
       inkscape:connector-curvature="0" />
    <path
       style="fill:#bfcecb;fill-opacity:1;stroke:none;stroke-width:0.26458332px;stroke-linecap:butt;stroke-linejoin:miter;stroke-opacity:1"
       d="m 15.312705,56.007391 c 0,0 -1.503391,0.985554 -3.775182,1.252826 0,0 2.6894,0.952148 2.923261,1.135895 0.233861,0.183748 0.818513,3.140417 0.334087,3.975635 0.7684,-0.367496 3.491208,-0.918739 3.491208,-0.918739 z"
       id="path917"
       inkscape:connector-curvature="0" />
    <path
       style="fill:#f6f3ea;fill-opacity:1;stroke:none;stroke-width:0.26458332px;stroke-linecap:butt;stroke-linejoin:miter;stroke-opacity:1"
       d="m 16.198036,53.117538 c -0.952148,-0.167042 -1.921,-1.302938 -2.071339,-1.954408 -0.150339,-0.651471 0.04176,-3.474503 0.392552,-4.025747 0,0 1.125008,2.350957 2.179917,2.772922 1.586913,0.634767 2.825626,0.442552 2.825626,0.442552 0,0 -0.08611,0.684991 -0.553835,1.227882 l -1.904295,1.637026 z"
       id="path911"
       inkscape:connector-curvature="0"
       sodipodi:nodetypes="cscscc" />
    <path
       style="fill:#1f2441;fill-opacity:1;stroke:none;stroke-width:0.26458332px;stroke-linecap:butt;stroke-linejoin:miter;stroke-opacity:1"
       d="m 77.152193,50.027234 c 0,0 -5.078123,-3.340868 -6.41447,-8.41899 -1.336347,-5.078121 5.011303,-9.554886 5.011303,-9.554886 L 61.182837,10.471345 c 0,0 4.810853,0.601356 7.684,1.202713 -1.202712,0.801809 -4.877668,0.400904 -4.877668,0.400904 0,0 0.467721,2.873148 2.739512,3.608139 2.271791,0.734991 4.142678,3.808591 4.877669,5.412208 0.734991,1.603617 1.937704,5.211756 2.338609,5.87993 0.400904,0.668173 4.209495,6.080381 7.216277,6.949007 -5.412208,0.400905 -8.452399,1.770661 -9.020347,3.908817 -0.567947,2.138156 3.006783,10.456918 5.011304,12.194171 z"
       id="path901"
       inkscape:connector-curvature="0"
       sodipodi:nodetypes="csccccssscsc" />
    <path
       style="fill:#d2cfca;fill-opacity:1;stroke:none;stroke-width:0.26458332px;stroke-linecap:butt;stroke-linejoin:miter;stroke-opacity:1"
       d="m 7.6955244,30.349515 c 1.904295,1.236123 4.2763116,-0.601355 5.0447116,-1.23612 0.7684,-0.634767 0.133635,-3.842 -0.233861,-5.3788 -0.367495,-1.5368 2.007612,-0.961881 2.007612,-0.961881 0,0 1.466892,2.832768 2.001431,2.999811 0.534539,0.167044 2.873148,-3.040191 1.770661,-7.683999 l 1.937704,-0.768399 c 0,0 1.202713,-1.503391 1.436574,-2.639287 0.233861,-1.135895 4.409947,-5.9133379 6.314243,-6.2474248 1.904295,-0.3340869 7.683999,-3.8754082 11.392363,-4.2763125 3.708365,-0.4009043 13.563929,1.5702085 17.472746,1.9711128 3.908817,0.4009043 9.822155,-0.6681738 9.822155,-0.6681738 0,0 -2.505652,2.4388344 -3.775182,2.706104 -1.26953,0.2672695 3.775182,6.5146943 5.679477,9.5882943 1.904296,3.073599 5.245165,7.249686 6.314243,9.18739 1.069078,1.937704 0.801809,3.374278 2.505652,5.378799 -3.741774,1.904295 -5.545842,5.879929 -5.479025,8.853303 0.06682,2.973373 3.708364,6.982417 4.977894,7.817634 1.269531,0.835217 1.403165,5.813112 1.403165,5.813112 0,0 -2.53906,-4.242904 -4.777442,-5.779703 -2.238383,-1.5368 -5.011304,-7.483547 -6.247426,-11.024868 -1.236121,-3.541322 -8.118312,-7.650591 -10.45692,-6.1472 -2.338608,1.503391 -8.485807,2.605878 -8.485807,2.605878 l -10.22306,4.209495 -2.171565,1.069078 0.801809,0.835218 c 0,0 -1.169304,0.400904 -1.369757,2.372017 -0.200452,1.971113 -1.603617,5.679477 -3.875408,7.784225 -2.271791,2.104747 -5.712886,4.142678 -6.915599,4.877669 -1.202713,0.734991 -3.775182,2.53906 -4.242904,3.875408 -0.467721,1.336348 -2.004521,6.11379 -2.004521,6.11379 0,0 -1.169304,-5.144938 -2.071339,-6.748555 -0.902035,-1.603617 -1.26953,-3.842 -1.26953,-3.842 0,0 0.902034,0.935444 2.739512,0.434313 1.837478,-0.50113 4.643809,-4.242903 4.844261,-5.178347 0.200452,-0.935443 1.169304,-0.668174 3.541321,-0.601356 2.372017,0.06682 4.777443,-3.040191 3.975634,-6.38106 -0.801808,-3.340869 -3.281133,-4.32386 -3.281133,-4.32386 0,0 -1.984375,-0.661458 -1.724517,-2.338727 0.259859,-1.67727 -0.354353,-2.220611 -1.157552,-3.141928 -0.803199,-0.921317 -0.377976,-2.69308 -0.377976,-2.69308 l -3.543527,3.96875 -5.480655,2.126116 -3.56715,-0.992187 -2.5749626,-3.661645 z"
       id="path903"
       inkscape:connector-curvature="0"
       sodipodi:nodetypes="ccsccccsssscsssccscsssccccsssscscsssscsscccccc" />
    <path
       style="fill:#bfcecb;fill-opacity:1;stroke:none;stroke-width:0.26458332px;stroke-linecap:butt;stroke-linejoin:miter;stroke-opacity:1"
       d="m 11.017707,22.843586 c 1.582776,1.700891 4.677456,7.110676 5.457032,7.346912 0.779575,0.236233 1.441034,-1.063056 1.015811,-2.315104 -0.425224,-1.252048 -2.362352,-4.866445 -2.362352,-4.866445 l -2.69308,-1.81901 z"
       id="path907"
       inkscape:connector-curvature="0" />
    <path
       style="fill:#1f2441;fill-opacity:1;stroke:none;stroke-width:0.26458332px;stroke-linecap:butt;stroke-linejoin:miter;stroke-opacity:1"
       d="m 32.515104,30.993696 c 0,0 1.181174,7.228795 2.787573,9.024181 1.606399,1.795388 4.346726,2.267857 6.047618,2.929316 1.700893,0.661458 4.15774,1.889881 5.008185,1.653646 0.850447,-0.236236 0.661458,-1.228424 1.13393,-1.889882 0.472469,-0.661458 1.653645,-0.566962 1.889881,-1.133928 0.236234,-0.566965 -0.803201,-1.653645 -0.566965,-2.173364 0.236236,-0.519715 1.27567,-0.803198 1.322917,-1.511903 0.04725,-0.708705 -1.228423,-1.322917 -1.228423,-1.842635 0,-0.519716 2.078868,-1.464657 1.559152,-2.078868 C 49.949254,33.356047 46.45297,32.978071 44.704834,33.545036 42.956695,34.111999 39.649403,34.9152 39.649403,34.9152 L 35.58616,33.45054 Z"
       id="path863"
       inkscape:connector-curvature="0" />
    <path
       style="fill:#a0bcbd;fill-opacity:1;stroke:none;stroke-width:0.26458332px;stroke-linecap:butt;stroke-linejoin:miter;stroke-opacity:1"
       d="m 11.017707,22.843586 c 0,0 1.67727,1.88988 2.244234,1.819009 0.566964,-0.07087 1.252046,-1.889881 1.252046,-1.889881 0,0 -4.039621,-6.59096 -4.6065847,-6.638207 -0.5669642,-0.04725 -2.4804687,1.559152 -2.4804687,1.559152 l 0.2598587,2.173363 c 0,0 2.5749617,2.504094 3.3309147,2.976564 z"
       id="path849"
       inkscape:connector-curvature="0" />
    <path
       style="fill:#1f2441;fill-opacity:1;stroke:none;stroke-width:0.26458332px;stroke-linecap:butt;stroke-linejoin:miter;stroke-opacity:1"
       d="m 26.270756,18.472726 c 0.651469,-1.202713 0.300678,-4.927781 0.05011,-5.278573 -0.250565,-0.350791 -1.971113,-2.121452 -2.42213,-2.104747 -0.451017,0.0167 0.334087,2.104747 0.334087,2.104747 l 0.968852,3.324165 0.668174,1.419869 z"
       id="path847"
       inkscape:connector-curvature="0" />
    <path
       style="fill:#a0bcbd;fill-opacity:1;stroke:none;stroke-width:0.26458332px;stroke-linecap:butt;stroke-linejoin:miter;stroke-opacity:1"
       d="m 25.451673,25.3713 c 1.228423,-0.54334 1.771764,-3.449032 2.315105,-3.378162 0.54334,0.07087 1.913503,2.905692 2.031621,5.173548 0.118118,2.267858 0.09449,4.913691 -1.889881,5.622396 0,0 0.448847,-3.260043 -0.448846,-4.039619 -0.897694,-0.779576 -2.385975,1.582775 -3.354539,0.496094 l 0.779576,-3.661645 z"
       id="path909"
       inkscape:connector-curvature="0" />
    <path
       style="fill:#1f2441;fill-opacity:1;stroke:none;stroke-width:0.26458332px;stroke-linecap:butt;stroke-linejoin:miter;stroke-opacity:1"
       d="m 24.032374,40.873254 c 0,0 -0.968852,0.417607 -1.904296,0.400904 -0.935443,-0.01669 -2.204973,-0.567949 -3.424391,-0.367495 -1.219417,0.200451 -3.056895,1.637024 -2.622582,4.911076 -0.985556,0.233862 -1.787364,-1.570207 -2.706103,-1.553503 -0.918739,0.0167 -2.037931,2.823035 -2.088044,4.576991 -5.0614166,-1.486687 -5.3955036,-9.003642 -4.9611906,-9.270912 0.434313,-0.267269 3.641548,-0.50113 4.2429046,-0.835217 0.601356,-0.334087 1.971112,-0.334087 2.472243,0.06682 0.50113,0.400904 2.572469,1.169304 5.412208,0.801809 2.839738,-0.367496 4.911077,-4.810852 4.911077,-5.144939 0,-0.334087 -0.801808,0.26727 -1.26953,0.233861 -0.467722,-0.03341 -0.04478,-1.927186 0.852911,-2.635891 0.897694,-0.708706 1.559152,-3.260045 1.795387,-5.173549 0,0 2.740327,1.724513 2.929316,3.283665 0.188988,1.559152 0.165365,2.196987 -0.330729,3.118304 1.653645,-0.661459 1.441034,-4.039621 0.02362,-5.835008 -1.417411,-1.795387 -2.787575,-3.921503 -2.787575,-3.921503 0,0 0.02362,6.023995 -1.842634,7.913876 -1.866257,1.889881 -4.890067,4.063244 -7.087053,4.441221 -2.196987,0.377976 -3.118304,0.661458 -4.84282,-1.181176 -1.7245166,-1.842634 -3.5671506,-5.457031 -3.5671506,-5.457031 0,0 -0.118117,3.09468 1.181176,5.126302 1.299293,2.031622 2.5513386,3.260045 1.6300216,3.732515 -0.9213166,0.47247 -2.7167036,0.921317 -5.1735483,0.307105 1.2610907,2.6334 1.6358487,10.84521 7.6963143,11.920584 -0.254092,-1.323139 -0.0014,-2.793381 0.595541,-3.794095 0.8032,-1.346541 1.837394,-0.05417 3.443793,-0.05417 -0.346387,-1.818658 0.321787,-4.524762 2.192674,-4.875553 1.870887,-0.350791 4.376538,1.252826 5.22846,-0.734991 z"
       id="path827"
       inkscape:connector-curvature="0"
       sodipodi:nodetypes="cccccccscsscscscccssscssccsc" />
    <path
       style="fill:#1f2441;fill-opacity:1;stroke:none;stroke-width:0.26458332px;stroke-linecap:butt;stroke-linejoin:miter;stroke-opacity:1"
       d="m 25.69972,44.211052 c -0.944941,0.153551 -1.771764,-0.519719 -3.354539,-0.366165 -1.582775,0.153554 -2.539007,1.755696 -3.173772,3.27579 -0.634765,1.520098 -0.818513,2.639288 -1.937704,2.539061 -1.119191,-0.100224 -2.104747,-1.478333 -2.672695,-2.789624 -1.035669,1.812422 -0.651469,4.309721 -0.350791,4.877669 0.300678,0.567948 1.469982,0.534539 1.469982,0.534539 0,0 -0.785104,-0.100226 -1.252826,-0.935443 -0.467721,-0.835218 0.06682,-3.942226 0.06682,-3.942226 0,0 1.436573,3.090304 3.073599,3.056895 1.637026,-0.03341 1.937704,-4.493469 3.507913,-5.595955 1.570208,-1.102487 3.457799,0.06682 4.042452,-0.06682 0.584652,-0.133635 0.581563,-0.587723 0.581563,-0.587723 z"
       id="path833"
       inkscape:connector-curvature="0" />
    <path
       style="fill:#f6f3ea;fill-opacity:1;stroke:none;stroke-width:0.26458332px;stroke-linecap:butt;stroke-linejoin:miter;stroke-opacity:1"
       d="m 22.812957,47.438061 c 0,0 1.88759,-2.27179 1.77066,-5.161643 -0.04727,-1.168348 -1.403165,-2.906556 -1.403165,-2.906556 0,0 1.252825,-0.08352 2.121452,0.501132 0.868626,0.584652 2.004523,1.854181 2.004523,1.854181 l 0.417607,3.524618 -1.286234,1.65373 -0.952148,0.567947 -1.620322,0.167042 -0.601356,-0.03341 z"
       id="path835"
       inkscape:connector-curvature="0"
       sodipodi:nodetypes="cscsccccccc" />
    <path
       style="fill:#1f2441;fill-opacity:1;stroke:none;stroke-width:0.26458332px;stroke-linecap:butt;stroke-linejoin:miter;stroke-opacity:1"
       d="m 22.812957,47.438061 c 0,0 3.30746,0.517834 4.142677,-2.021226 0.835218,-2.539061 -0.317382,-4.393242 -1.65373,-5.545841 0,0 1.469983,-0.91874 1.1526,-1.787366 -0.317382,-0.868626 -2.321904,0.334087 -2.321904,0.334087 0,0 1.753956,-1.954408 2.655991,-0.801808 0.902035,1.152599 -0.3842,2.488947 -0.3842,2.488947 0,0 2.271791,2.238382 2.288496,4.109269 0.0167,1.870887 -2.572469,4.81085 -5.87993,3.223938 z"
       id="path829"
       inkscape:connector-curvature="0" />
    <path
       style="fill:#1f2441;fill-opacity:1;stroke:none;stroke-width:0.26458332px;stroke-linecap:butt;stroke-linejoin:miter;stroke-opacity:1"
       d="m 19.616666,49.32554 c -0.236235,0.944941 -1.488282,4.393975 -6.000373,3.567152 3.000187,2.102493 6.992561,0.04724 6.000373,-3.567152 z"
       id="path837"
       inkscape:connector-curvature="0" />
    <path
       style="fill:#1f2441;fill-opacity:1;stroke:none;stroke-width:0.26458332px;stroke-linecap:butt;stroke-linejoin:miter;stroke-opacity:1"
       d="m 17.49055,27.875394 c 0,0 -6.071243,-10.01637 -7.488654,-10.205359 -1.4174106,-0.188987 -0.8976926,2.126117 -0.8976926,2.126117 0,0 -0.87407,-0.519718 -1.063058,-0.07087 -0.188989,0.448847 2.9765616,3.118304 2.9765616,3.118304 0,0 -2.6694566,-2.126116 -3.1891736,-2.456846 -0.519717,-0.330729 -2.471618,-1.128909 -2.070713,-2.064352 0.400904,-0.935443 1.102487,-1.5368 1.00226,-2.706104 -0.100226,-1.169304 0.467722,-1.971112 1.637026,-1.670434 1.169304,0.300678 7.8177736,9.346582 9.0934436,13.929545 z"
       id="path839"
       inkscape:connector-curvature="0" />
    <path
       style="fill:#1f2441;fill-opacity:1;stroke:none;stroke-width:0.26458332px;stroke-linecap:butt;stroke-linejoin:miter;stroke-opacity:1"
       d="m 20.6561,22.252997 c -0.850446,-3.638021 -6.401972,-8.906064 -6.212984,-9.28404 0.188989,-0.377976 2.14974,-1.960752 2.716704,-1.937128 0.566965,0.02362 2.220611,2.196986 2.952939,4.275855 0.732329,2.078869 1.228423,5.102679 0.543341,6.945313 z"
       id="path841"
       inkscape:connector-curvature="0" />
    <path
       style="fill:#a0bcbd;fill-opacity:1;stroke:none;stroke-width:0.26458332px;stroke-linecap:butt;stroke-linejoin:miter;stroke-opacity:1"
       d="m 20.6561,22.252997 c -0.19039,-2.272834 -2.354119,-8.029527 -4.748326,-10.914063 -0.329765,-0.3973 -1.157552,0.236235 -1.157552,0.897694 0,0.661458 3.232804,5.185399 4.323104,7.843006 1.133927,2.763951 1.393786,4.488467 1.393786,4.488467 0,0 0.29809,-1.012664 0.188988,-2.315104 z"
       id="path843"
       inkscape:connector-curvature="0"
       sodipodi:nodetypes="sssscs" />
    <path
       style="fill:#a0bcbd;fill-opacity:1;stroke:none;stroke-width:0.26458332px;stroke-linecap:butt;stroke-linejoin:miter;stroke-opacity:1"
       d="M 26.270756,18.472726 C 25.2852,18.055118 24.617026,14.41357 23.7484,13.093927 c -0.868626,-1.319643 -1.436574,-1.65373 -1.353052,-1.837478 0.08352,-0.183748 1.252826,-0.417609 1.570208,-0.150339 0.317383,0.267269 1.002261,4.493469 2.3052,7.366616 z"
       id="path845"
       inkscape:connector-curvature="0" />
    <path
       style="fill:#1f2441;fill-opacity:1;stroke:none;stroke-width:0.26458332px;stroke-linecap:butt;stroke-linejoin:miter;stroke-opacity:1"
       d="m 25.995014,29.434544 c 0.02362,1.228423 -0.590588,2.173364 -0.614212,2.834822 -0.02362,0.661459 0.259859,0.826823 0.543341,0.73233 0.283482,-0.0945 1.110305,-0.850448 1.063059,-1.464659 -0.04725,-0.614212 -0.992188,-2.102493 -0.992188,-2.102493 z"
       id="path851"
       inkscape:connector-curvature="0" />
    <path
       style="fill:#c7ba16;fill-opacity:1;stroke:none;stroke-width:0.26458332px;stroke-linecap:butt;stroke-linejoin:miter;stroke-opacity:1"
       d="m 16.297562,37.301175 c -0.696894,0 -1.228422,0.54334 -1.677269,0.54334 -0.448847,0 -2.01981,-1.157552 -2.01981,-1.157552 0,0 1.133928,1.594586 1.275669,1.842633 0.141741,0.248047 0.224424,0.850447 1.299293,0.708705 1.07487,-0.14174 1.724517,-0.803199 1.807199,-1.157552 0.08268,-0.354352 -0.283482,-0.779574 -0.685082,-0.779574 z"
       id="path853"
       inkscape:connector-curvature="0" />
    <path
       style="fill:#bebab7;fill-opacity:1;stroke:none;stroke-width:0.26458332px;stroke-linecap:butt;stroke-linejoin:miter;stroke-opacity:1"
       d="m 34.121501,19.040199 c 0,0 -3.921501,5.24442 -2.83482,9.874629 1.08668,4.630208 6.425594,6.66183 8.409969,6.472841 1.984375,-0.188987 5.008184,-1.842633 5.008184,-1.842633 0,0 -6.472841,0.897692 -9.307663,-4.724704 -2.83482,-5.622395 -1.27567,-9.780133 -1.27567,-9.780133 z"
       id="path855"
       inkscape:connector-curvature="0" />
    <path
       style="fill:#bebab7;fill-opacity:1;stroke:none;stroke-width:0.26458332px;stroke-linecap:butt;stroke-linejoin:miter;stroke-opacity:1"
       d="m 37.287052,19.98514 c 0,0 1.41741,9.874629 8.220983,12.425966 6.803569,2.55134 13.087424,-4.252232 13.087424,-4.252232 0,0 -3.496279,1.748141 -7.606771,0.803201 C 46.878198,28.017134 44.94107,28.347863 43.003941,27.024946 41.066813,25.70203 37.287052,19.98514 37.287052,19.98514 Z"
       id="path857"
       inkscape:connector-curvature="0" />
    <path
       style="fill:#bebab7;fill-opacity:1;stroke:none;stroke-width:0.26458332px;stroke-linecap:butt;stroke-linejoin:miter;stroke-opacity:1"
       d="m 44.988316,20.977327 c 0,0 6.283854,5.764137 10.48884,5.149926 4.204986,-0.614211 5.055431,-4.724703 5.055431,-4.724703 0,0 -4.724702,0.236236 -6.614583,0.661459 -1.889879,0.425223 -4.441219,1.181175 -8.929688,-1.086682 z"
       id="path861"
       inkscape:connector-curvature="0" />
    <path
       style="fill:#1f2441;fill-opacity:1;stroke:none;stroke-width:0.26458332px;stroke-linecap:butt;stroke-linejoin:miter;stroke-opacity:1"
       d="m 37.050816,46.159991 c 0.755955,1.748139 -0.425222,5.008184 -1.55915,6.283854 -1.13393,1.27567 -2.645833,5.858632 -1.181176,7.606771 1.464656,1.748139 1.889881,2.078868 1.511906,2.69308 -0.377979,0.614212 0.755951,0.472469 0.850445,1.181177 0.09449,0.708705 0.8032,1.606396 1.27567,1.41741 0.472469,-0.18899 2.078868,-2.267858 2.031621,-2.598587 -0.04725,-0.330729 -0.614212,-1.464657 0.04725,-1.795386 0.661458,-0.330729 0.803201,1.653646 1.511906,1.653646 0.708705,0 1.322916,-0.472472 1.984375,-0.755954 0.661458,-0.283483 1.039434,0.236236 0.614211,0.755954 0,0 3.779759,-0.897694 5.764134,-1.889881 -3.543526,3.212797 -10.725074,6.236607 -10.725074,6.236607 0,0 7.748512,-2.362351 9.543899,-2.645833 1.795387,-0.283482 7.228794,-0.944941 9.921875,-4.063244 2.69308,-3.118304 3.071056,-9.780134 2.126116,-13.370908 -0.944941,-3.590774 -4.535714,-10.96131 -5.008185,-11.953497 -0.47247,-0.992188 1.842634,-2.315105 1.653646,-3.118304 -0.188988,-0.803199 -2.69308,0.897694 -3.260045,1.181176 -0.566964,0.283482 1.511905,2.315104 1.653646,3.96875 0.141741,1.653646 -0.94494,5.149925 -2.126116,6.047619 -1.181175,0.897693 3.827009,-0.04725 4.110491,0.708705 0.283482,0.755953 0.236235,5.905878 -0.850446,6.331101 -1.086682,0.425224 -2.740327,-3.685267 -3.685268,-3.732515 -0.94494,-0.04725 -1.27567,0.992188 -1.700893,1.228423 -0.425223,0.236235 -1.606399,0.377976 -1.653646,0.992188 -0.04725,0.614211 0.04725,2.362351 -0.141741,2.787574 -0.188988,0.425223 -0.94494,0.566964 -0.850446,1.181176 0.09449,0.614211 4.299479,1.984375 4.110491,2.456845 -0.188988,0.47247 -3.307292,3.921503 -4.063244,4.157738 -0.755953,0.236235 0.188988,-1.133929 -0.188988,-1.889881 -0.377976,-0.755952 -1.370164,-0.236235 -1.370164,-0.94494 0,-0.708706 1.417411,-0.708706 0.897694,-1.937128 -0.519718,-1.228423 -3.732515,-0.519718 -3.827009,-1.086682 -0.09449,-0.566964 0.897693,-0.94494 0.897693,-1.228423 0,-0.283482 -2.929315,-0.425223 -4.44122,-2.031622 -1.511905,-1.606398 -1.275673,-2.787575 -3.874258,-3.827009 z"
       id="path865"
       inkscape:connector-curvature="0" />
    <path
       style="fill:#1f2441;fill-opacity:1;stroke:none;stroke-width:0.26458332px;stroke-linecap:butt;stroke-linejoin:miter;stroke-opacity:1"
       d="m 43.609866,59.949617 c 0.350793,0 0.417608,0.701582 -0.01669,0.935442 -0.434314,0.23386 -0.734991,-0.23386 -0.7684,-0.517835 -0.03341,-0.283974 0.434313,-0.417607 0.785103,-0.417607 z"
       id="path867"
       inkscape:connector-curvature="0" />
    <path
       style="fill:#1f2441;fill-opacity:1;stroke:none;stroke-width:0.26458332px;stroke-linecap:butt;stroke-linejoin:miter;stroke-opacity:1"
       d="m 32.184094,53.46833 c 0,0 -2.271791,3.441094 -0.734991,7.316502 1.536801,3.87541 3.006783,5.545844 1.937705,7.015827 -1.069078,1.469982 -3.34087,2.071338 -4.476766,-0.200454 -1.135896,-2.271789 -3.140416,-2.973372 -3.140416,-2.973372 0,0 1.703843,-1.30294 1.937703,-2.238383 0.233862,-0.935445 -0.434311,-1.236122 -0.434311,-1.236122 0,0 1.670433,-0.935443 1.837478,-1.637025 0.167042,-0.701582 0.534538,-4.009043 3.073598,-6.046973 z"
       id="path869"
       inkscape:connector-curvature="0" />
    <path
       style="fill:#1f2441;fill-opacity:1;stroke:none;stroke-width:0.26458332px;stroke-linecap:butt;stroke-linejoin:miter;stroke-opacity:1"
       d="m 24.1326,66.998849 c 0,0 -2.505652,-1.971111 -5.211756,-1.102487 -2.706104,0.868627 -4.543582,5.245164 -4.543582,7.984678 1.336348,-0.668173 4.643808,-4.911077 5.980156,-5.612659 1.336348,-0.701583 3.775182,-1.269532 3.775182,-1.269532 z"
       id="path871"
       inkscape:connector-curvature="0" />
    <path
       style="fill:#1f2441;fill-opacity:1;stroke:none;stroke-width:0.26458332px;stroke-linecap:butt;stroke-linejoin:miter;stroke-opacity:1"
       d="m 27.406652,70.005632 c 0,0 -3.207235,0.935443 -4.075861,2.372017 0,0 0.133635,-1.737251 1.135896,-2.939964 -3.107008,1.336348 -4.07586,3.340869 -4.07586,5.11153 0,1.77066 -0.03341,3.474504 3.57473,5.913338 0,0 -0.941979,-2.933213 -0.467722,-4.877669 0.668173,-2.739513 3.908817,-5.579252 3.908817,-5.579252 z"
       id="path873"
       inkscape:connector-curvature="0"
       sodipodi:nodetypes="cccscsc" />
    <path
       style="fill:#1f2441;fill-opacity:1;stroke:none;stroke-width:0.26458332px;stroke-linecap:butt;stroke-linejoin:miter;stroke-opacity:1"
       d="m 30.112756,72.5781 c 0,0 -0.434313,5.044712 1.503392,6.64833 1.937702,1.603616 5.04471,0.501132 5.04471,0.501132 0,0 -2.27179,-0.33409 -3.541321,-2.57247 -1.269529,-2.238383 0.367495,-4.610399 0.367495,-4.610399 0,0 -1.269529,0.534538 -1.77066,1.837476 0,0 -1.202712,-0.601358 -1.603616,-1.804069 z"
       id="path875"
       inkscape:connector-curvature="0" />
    <path
       style="fill:#1f2441;fill-opacity:1;stroke:none;stroke-width:0.26458332px;stroke-linecap:butt;stroke-linejoin:miter;stroke-opacity:1"
       d="m 18.319488,65.595685 c 0,0 0.734991,-6.715147 3.407686,-8.819894 2.672695,-2.104749 4.610399,-3.507914 6.781964,-4.10927 2.171565,-0.601355 4.478435,-4.616648 4.336695,-8.585398 0.188988,5.764136 -1.228423,8.126487 -5.008185,10.205357 -3.779762,2.078869 -7.508046,4.192071 -9.51816,11.309205 z"
       id="path877"
       inkscape:connector-curvature="0" />
    <path
       style="fill:#1f2441;fill-opacity:1;stroke:none;stroke-width:0.26458332px;stroke-linecap:butt;stroke-linejoin:miter;stroke-opacity:1"
       d="m 10.592484,56.97956 c -3.7325147,1.181174 -7.0870532,4.630208 -7.0870532,4.630208 0,0 2.3623511,-0.425225 3.6852677,-0.897694 1.3229167,-0.472471 3.4017855,-3.732514 3.4017855,-3.732514 z"
       id="path879"
       inkscape:connector-curvature="0" />
    <path
       style="fill:#1f2441;fill-opacity:1;stroke:none;stroke-width:0.26458332px;stroke-linecap:butt;stroke-linejoin:miter;stroke-opacity:1"
       d="m 11.112201,61.987744 c 0,-0.755954 -3.3072911,-0.472471 -5.1499251,3.921504 2.5040924,-2.315105 5.1499251,-2.88207 5.1499251,-3.921504 z"
       id="path881"
       inkscape:connector-curvature="0" />
    <path
       style="fill:#1f2441;fill-opacity:1;stroke:none;stroke-width:0.26458332px;stroke-linecap:butt;stroke-linejoin:miter;stroke-opacity:1"
       d="m 11.608295,64.161106 c 0,0 -1.9843747,0.850447 -2.2206098,2.527715 0,0 0.8031998,-0.992185 1.4410338,-1.393785 0.637835,-0.4016 0.779576,-1.13393 0.779576,-1.13393 z"
       id="path883"
       inkscape:connector-curvature="0" />
    <path
       style="fill:#a0bcbd;fill-opacity:1;stroke:none;stroke-width:0.26458332px;stroke-linecap:butt;stroke-linejoin:miter;stroke-opacity:1"
       d="m 68.659076,48.191613 c 0.519716,0 1.748139,0.992187 1.771764,1.27567 0.02363,0.283482 -1.110306,1.913503 -1.535528,1.842632 -0.425225,-0.07087 -0.779576,-3.118302 -0.236236,-3.118302 z"
       id="path885"
       inkscape:connector-curvature="0" />
    <path
       style="fill:#a0bcbd;fill-opacity:1;stroke:none;stroke-width:0.26458332px;stroke-linecap:butt;stroke-linejoin:miter;stroke-opacity:1"
       d="m 66.60383,42.474724 c 0.519718,0 2.55134,3.519903 2.244233,3.77976 -0.307105,0.259858 -3.519903,0.519719 -3.661643,0.141743 -0.141743,-0.377978 0.992187,-3.921503 1.41741,-3.921503 z"
       id="path887"
       inkscape:connector-curvature="0" />
    <path
       style="fill:#a0bcbd;fill-opacity:1;stroke:none;stroke-width:0.26458332px;stroke-linecap:butt;stroke-linejoin:miter;stroke-opacity:1"
       d="m 62.352142,35.895359 c 0.701583,0 3.608139,4.276312 3.374276,4.57699 -0.233859,0.300678 -3.407685,0.567947 -3.641545,0.100227 -0.233862,-0.467723 -0.400904,-4.677217 0.267269,-4.677217 z"
       id="path891"
       inkscape:connector-curvature="0" />
    <path
       style="fill:#1f2441;fill-opacity:1;stroke:none;stroke-width:0.26458332px;stroke-linecap:butt;stroke-linejoin:miter;stroke-opacity:1"
       d="m 42.306928,77.021456 c 0,0 3.908817,0.701583 4.81085,-0.334086 0.902036,-1.035669 0.668174,-2.873148 0.567949,-3.975635 -0.100226,-1.102487 2.372016,-3.975634 7.049233,-2.572469 -4.677216,0.567949 -6.247424,1.169306 -6.180607,2.83974 0.06682,1.670435 0,4.34313 -1.804069,4.84426 -1.804069,0.501131 -3.374278,0.100223 -4.443356,-0.80181 z"
       id="path893"
       inkscape:connector-curvature="0" />
    <path
       style="fill:#1f2441;fill-opacity:1;stroke:none;stroke-width:0.26458332px;stroke-linecap:butt;stroke-linejoin:miter;stroke-opacity:1"
       d="m 66.895723,70.573579 c -2.338607,0.167045 -4.785837,0.618262 -5.846521,-1.135896 -0.566253,-0.93647 1.30294,-3.975634 3.173828,-3.975634 1.870884,0 2.546164,1.722866 2.23906,2.585124 -0.307107,0.862259 -1.547342,1.192988 -2.019811,0.602401 -0.472469,-0.590587 -0.165364,-1.606399 0.602401,-1.523717 -1.015811,-0.755951 -1.866258,1.216612 -1.240235,2.114306 0.626023,0.897693 2.681269,0.590587 3.260045,-0.897694 0.578776,-1.488281 -0.838617,-3.604931 -2.960069,-3.621633 -2.121452,-0.0167 -4.558608,2.979597 -3.840321,4.750258 0.718287,1.77066 3.290752,2.321901 6.631623,1.102485 z"
       id="path895"
       inkscape:connector-curvature="0"
       sodipodi:nodetypes="csscscssssc" />
    <path
       style="fill:#1f2441;fill-opacity:1;stroke:none;stroke-width:0.26458332px;stroke-linecap:butt;stroke-linejoin:miter;stroke-opacity:1"
       d="m 75.202788,59.294664 c 0,0 -1.370163,3.496279 -2.551337,4.771949 -1.181177,1.27567 -1.937129,2.905691 -1.039437,3.803385 0.897694,0.897694 5.409784,2.55134 5.929503,3.874257 0.519715,1.322916 -0.685083,2.598586 -0.685083,2.598586 0,0 1.181176,-0.377978 1.67727,-0.732329 0,0 -0.04725,0.826823 -0.897692,1.960752 0,0 2.149739,-1.34654 2.149739,-2.929316 0,-1.582775 -2.740327,-4.582961 -3.661644,-5.551525 -0.921317,-0.968564 -1.866258,-1.252046 -2.078869,-1.653646 -0.212612,-0.401599 1.582771,-2.976562 1.15755,-6.142113 z"
       id="path897"
       inkscape:connector-curvature="0" />
    <path
       style="fill:none;stroke:#000000;stroke-width:0.26458332px;stroke-linecap:butt;stroke-linejoin:miter;stroke-opacity:1"
       d="m 77.588763,51.994998 c 0,0 1.300681,2.575819 1.03341,11.262077 1.202715,-7.216275 0.07133,-10.563845 -1.03341,-11.262077 z"
       id="path899"
       inkscape:connector-curvature="0" />
    <path
       style="fill:#1f2441;fill-opacity:1;stroke:none;stroke-width:0.26458332px;stroke-linecap:butt;stroke-linejoin:miter;stroke-opacity:1"
       d="m 20.841844,37.766246 c 0,0 1.65373,0.634765 1.920999,0.868625 0.26727,0.23386 0,1.152599 0,1.152599 0,0 1.085783,-0.88533 0.968852,-1.23612 -0.11693,-0.350793 -2.889851,-0.785104 -2.889851,-0.785104 z"
       id="path921"
       inkscape:connector-curvature="0" />
    <path
       style="fill:#1f2441;fill-opacity:1;stroke:none;stroke-width:0.26458332px;stroke-linecap:butt;stroke-linejoin:miter;stroke-opacity:1"
       d="m 76.336718,74.768064 c -2.4096,0.968563 -2.55134,3.472656 -3.661645,3.827007 -1.110306,0.354354 -7.748511,1.606399 -7.748511,1.606399 0,0 6.023993,0.708705 8.173733,0.141743 2.14974,-0.566965 2.031624,-1.771764 1.653646,-2.338729 -0.377976,-0.566965 0.519718,-2.14974 1.582777,-3.23642 z"
       id="path929"
       inkscape:connector-curvature="0" />
    <path
       style="fill:#1f2441;fill-opacity:1;stroke:none;stroke-width:0.26458332px;stroke-linecap:butt;stroke-linejoin:miter;stroke-opacity:1"
       d="m 70.596204,73.445147 c -0.0945,0.590587 -1.181176,1.511903 -1.204798,2.007997 -0.02363,0.496094 -1.913507,2.291482 -1.913507,2.291482 0,0 2.315104,-1.346541 2.527716,-1.842635 0.212614,-0.496094 0.590589,-2.456844 0.590589,-2.456844 z"
       id="path931"
       inkscape:connector-curvature="0" />
  </g>
</svg>
