<?xml version="1.0" encoding="UTF-8" standalone="no"?>
<!-- Created with Inkscape (http://www.inkscape.org/) -->

<svg
   xmlns:dc="http://purl.org/dc/elements/1.1/"
   xmlns:cc="http://creativecommons.org/ns#"
   xmlns:rdf="http://www.w3.org/1999/02/22-rdf-syntax-ns#"
   xmlns:svg="http://www.w3.org/2000/svg"
   xmlns="http://www.w3.org/2000/svg"
   xmlns:sodipodi="http://sodipodi.sourceforge.net/DTD/sodipodi-0.dtd"
   xmlns:inkscape="http://www.inkscape.org/namespaces/inkscape"
   width="320"
   height="320"
   viewBox="0 0 84.666665 84.666669"
   version="1.1"
   id="svg8"
   inkscape:version="0.92.4 (5da689c313, 2019-01-14)"
   sodipodi:docname="MHRise-Mizutsune Icon.svg"
   inkscape:export-filename="C:\Users\GabrielAntonio\Pictures\Risecons\Aknosom.png"
   inkscape:export-xdpi="96"
   inkscape:export-ydpi="96">
  <defs
     id="defs2" />
  <sodipodi:namedview
     id="base"
     pagecolor="#ffffff"
     bordercolor="#666666"
     borderopacity="1.0"
     inkscape:pageopacity="0.0"
     inkscape:pageshadow="2"
     inkscape:zoom="4.0000001"
     inkscape:cx="93.707363"
     inkscape:cy="203.63018"
     inkscape:document-units="px"
     inkscape:current-layer="layer2"
     showgrid="false"
     showguides="false"
     units="px"
     inkscape:window-width="1304"
     inkscape:window-height="745"
     inkscape:window-x="-8"
     inkscape:window-y="-8"
     inkscape:window-maximized="1" />
  <metadata
     id="metadata5">
    <rdf:RDF>
      <cc:Work
         rdf:about="">
        <dc:format>image/svg+xml</dc:format>
        <dc:type
           rdf:resource="http://purl.org/dc/dcmitype/StillImage" />
        <dc:title></dc:title>
      </cc:Work>
    </rdf:RDF>
  </metadata>
  <g
     inkscape:groupmode="layer"
     id="layer2"
     inkscape:label="Layer 5">
    <path
       style="fill:none;fill-opacity:1;stroke:#000000;stroke-width:1.05833328;stroke-linecap:round;stroke-linejoin:round;stroke-miterlimit:4;stroke-dasharray:none;stroke-opacity:1"
       d="m 23.151041,5.4901056 -1.316199,0.9616983 c 0.02793,-0.3536831 0.05426,-0.596346 0.05426,-0.596346 0,0 -2.291881,1.8006401 -3.20394,2.0345011 -0.760537,0.1950098 -3.485618,2.260928 -2.757453,5.287532 -0.3053,0.152589 -0.667105,0.02589 -1.033529,-0.234094 -1.787114,-2.886005 -3.913973,-5.9319372 -3.913973,-5.9319372 0.496094,2.149739 2.38125,2.645833 1.289844,7.8713542 -1.091406,5.225521 -4.001823,3.274218 -5.0270834,7.37526 -1.0252604,4.101041 0.8598958,8.036718 0.8598958,8.036718 -1.1575521,0.231513 -4.729427,-0.363802 -4.729427,-0.363802 1.4882812,2.84427 5.1924478,4.729429 5.1924478,5.390885 0,0.661458 -1.2236979,2.414323 -1.2236979,3.638021 0,1.223698 -0.6283854,2.447396 -0.9921875,2.546614 -0.363802,0.09922 -0.7276041,1.984375 0.3307292,6.416146 1.0583333,4.431771 3.0757812,11.211721 5.357812,13.030729 2.282032,1.819013 4.365625,1.521354 6.217709,2.645833 -0.196676,-0.604075 -0.722524,-1.25527 -1.334802,-1.843296 -0.173445,-1.314125 -0.626549,-5.555623 0.758092,-5.713865 0.08543,-0.0098 0.166198,-0.03048 0.243914,-0.05736 0.522412,0.527487 0.398942,1.165302 0.398942,1.165302 0.992187,7.14375 4.43177,11.046354 8.929687,14.155208 -2.116667,-0.463018 -4.101042,-2.182813 -4.101042,-2.182813 2.050521,5.423959 9.988021,8.863542 9.988021,8.863542 -4.034896,0.727604 -7.805208,-2.579687 -7.805208,-2.579687 0,0 0.859896,2.38125 4.564062,4.630208 3.704167,2.248958 10.781774,1.653646 12.170833,0.859896 1.389066,-0.79375 1.322922,2e-6 10.252604,0.132291 8.92969,0.132295 16.734893,-3.96875 22.026563,-10.78177 5.291669,-6.813019 5.688539,-19.182292 3.175,-25.201563 -0.995019,-2.382808 -2.460186,-4.643884 -4.234368,-6.681245 0.657923,-1.059402 3.051736,-1.00104 3.137278,-1.685684 0.09354,-0.748353 -3.133989,-1.076097 -2.43241,-1.684136 0.701559,-0.608037 0.51476,-2.478455 -0.04651,-4.396113 -0.01547,-0.05286 -0.02742,-0.105437 -0.04134,-0.158131 0.02968,-1.421238 0.221133,-3.508243 0.88315,-4.051432 0.912069,-0.748353 1.940697,-2.970292 0.888317,-3.625101 -0.80668,-0.501936 -4.517504,2.795653 -6.020821,4.460708 -0.215704,0.183613 -0.430861,0.366757 -0.620636,0.520382 -1.490744,1.206789 -4.215042,2.222622 -4.913394,2.255161 0.01914,-0.04141 0.05644,-0.08355 0.119372,-0.126609 0.478845,-0.327631 0.782788,-0.929719 0.947748,-1.422651 0.832215,-1.428885 1.457193,-3.549202 1.086755,-4.727877 -0.484884,-1.542816 0.49309,-2.730744 2.133203,-5.326806 1.153004,-1.300674 2.784308,-3.013032 3.128491,-3.045809 0.491099,-0.04677 1.520526,-2.057827 2.035017,-2.595707 0.5145,-0.53788 1.706917,-3.3908162 1.332735,-3.9754684 -0.374179,-0.5846524 -1.332828,-0.3275467 -1.683618,0.1167889 -0.06474,0.082003 -0.116991,0.2025201 -0.163814,0.3358968 -0.804558,0.6228958 -1.729875,1.5927397 -2.338874,2.0494867 -0.51739,0.388044 -1.450888,0.749375 -2.703195,1.47588 -0.323308,0.01994 -0.75668,0.175352 -1.576131,0.512113 -1.70719,0.701582 -4.817772,4.232867 -3.81217,3.765145 0.02937,-0.01366 0.07126,-0.02794 0.106453,-0.04186 -3.282974,3.040159 -7.917347,7.338053 -7.917347,7.338053 -1.981523,-2.442336 -1.781656,-5.656034 -0.612365,-8.568469 0.855956,-1.658691 1.889943,-3.646329 2.399853,-4.533573 0.82682,-1.4386725 1.289839,-2.7450524 1.124479,-2.9600264 -0.165359,-0.214974 -0.661458,0.198437 -1.273307,0.611849 -0.611849,0.4134109 -2.067052,2.5631514 -2.232422,3.7207034 -0.05698,0.398887 -0.1725,0.895043 -0.309541,1.400431 -1.707232,3.001263 -6.487523,10.10066 -8.497673,11.685592 -2.432156,1.917657 -0.327589,6.828851 -0.701765,8.606192 -0.374179,1.777344 -2.572684,1.964436 -2.806547,2.385385 -0.173881,0.312981 0.659638,1.890072 1.099156,2.679938 -1.71577,2.228694 -4.123438,4.474607 -7.272941,5.224489 0.670526,0.10518 1.548072,-0.03345 2.507859,-0.393258 -2.511322,1.179692 -5.556557,1.331661 -6.511232,1.349272 -0.235416,-2.030767 0.05116,-3.037541 0.05116,-3.037541 0,0 -1.309563,2.900217 -0.561205,6.454902 0,0 -1.052976,-1.086803 -1.620057,-2.128033 0.0068,-0.493618 0.08992,-2.268697 0.842325,-4.005443 0.181816,-0.08125 0.354147,-0.194794 0.414446,-0.324011 0.115755,-0.248044 1.124479,-1.438669 0.859896,-1.604037 -0.264584,-0.165367 -0.694532,-0.04961 -1.141016,0.396875 -0.355835,0.355836 -0.846378,1.192761 -0.763778,1.518772 -0.511379,0.523793 -1.127054,1.21865 -1.7663,2.102713 0,0 -0.628386,-1.058334 -0.463021,-2.248959 0,0 -1.837822,1.627688 -2.060339,3.166732 -0.385308,-0.0102 -0.802857,0.0043 -1.219563,0.06253 0.671632,-2.154539 1.923913,-4.122229 1.923913,-4.122229 0,0 -1.275184,0.839983 -2.205033,2.821016 0.459129,-1.968526 1.191398,-3.57827 1.501199,-4.211629 1.898044,-0.495504 6.531988,-4.511006 6.78925,-5.025533 0.264583,-0.529164 2.579685,-0.330729 3.638021,-1.951302 1.058333,-0.859901 1.256771,-0.3638 4.134114,-0.09922 0,0 1.041797,-0.644919 1.157552,-2.067057 0.115756,-1.42213 0.148829,-2.282029 0.28112,-2.331641 0.132292,-0.04961 0.661459,-0.611849 0.429948,-0.826823 C 41.721484,27.863932 37.041666,27.78125 34.958072,26.590625 32.874479,25.4 29.666406,24.47396 28.872656,24.374741 28.078906,24.275521 24.602294,21.103392 22.918496,16.005226 22.119015,13.584573 21.84914,11.18112 21.783683,9.3172622 22.493658,7.2037963 23.151041,5.4901056 23.151041,5.4901056 Z m 7.788672,32.9075504 c -1.174088,0.314193 -2.348177,2.298565 -2.364713,4.233334 0,0 1.289843,-2.397787 2.645833,-2.860808 0,0 -0.810287,-0.380338 -1.07487,-0.297656 0,0 0.380339,-0.694529 0.79375,-1.07487 z m 31.686439,7.648631 c 0.840539,-0.01079 1.441831,0.76695 1.780251,1.35909 -0.826788,1.35023 -1.508691,3.21523 -1.435571,3.824571 0.0992,0.826823 -1.653643,2.579687 -1.620572,3.671093 0.0331,1.091407 1.422135,1.951303 2.678906,0.694532 -0.892969,-0.06615 -1.389065,-0.231508 -0.959115,-1.256771 0.429951,-1.025258 0.429948,-1.256771 0.661459,-1.322917 0.23151,-0.06614 1.785937,1.35599 2.579687,1.289844 0.79375,-0.06615 0.727607,2.14974 -0.595312,3.73724 -1.322909,1.587499 -4.497917,4.630208 -8.003646,5.159374 -2.984918,0.450554 -6.160143,0.106122 -8.916252,-1.229897 -0.292608,-1.166257 -0.112654,-2.738853 -0.112654,-2.738853 0,0 4.20026,-4.696354 4.99401,-5.853906 0.79375,-1.157552 1.653643,-5.721612 2.083594,-6.316927 0.42994,-0.59531 0.992185,-0.826823 1.422135,-0.826823 0.429951,0 2.612763,1.124482 3.770313,0.79375 0.328001,-0.09371 0.953285,-0.486164 1.672767,-0.9834 z M 13.49375,64.624479 c 0,0 1.028665,1.146267 0.607713,1.590601 -0.420949,0.444333 -6.3607814,0.280416 -8.2082822,2.057757 -1.8475007,1.777341 -3.9992246,3.788645 -1.7073906,6.314342 0,0 -0.4676007,-1.426819 0.070281,-2.338874 0,0 0.234106,1.052464 1.3332513,1.543573 0,0 -0.9590723,-1.169093 -0.1405599,-1.964221 0.8185123,-0.795126 1.8241406,-1.707277 3.3910084,-1.543574 1.566868,0.1637 3.437983,0.04668 3.905703,-0.350883 0.467722,-0.397562 2.923307,-1.800579 3.20394,-2.595708 0.280633,-0.795125 -1.683943,-2.502855 -2.455664,-2.713013 z m 5.612577,1.216464 c 0,0 -0.163896,3.648062 -0.608232,3.975468 -0.444334,0.327406 -4.794094,2.525874 -5.331973,3.180683 -0.53788,0.654809 -0.958446,1.473002 -1.168922,1.800407 -0.210473,0.327406 -2.9703709,3.06386 -2.8768275,4.630727 0.093541,1.566868 0.9591065,2.221468 2.2453415,1.964219 -1.6837978,-0.935442 -1.4030854,-1.987933 -0.748273,-2.549197 0.654809,-0.561265 1.63659,-0.865063 1.63659,-0.865063 0,0 -0.280397,0.841616 0.234096,1.426269 0.514493,0.584652 2.198314,0.397909 2.198314,0.397909 0,0 -1.987637,-0.561687 -1.683618,-2.128552 0.30402,-1.566867 2.82951,-3.998531 4.349605,-4.583184 1.520097,-0.584652 3.086735,-0.678481 3.343984,-0.959114 0.257246,-0.280633 -1.590085,-6.290572 -1.590085,-6.290572 z"
       id="path1500-3"
       inkscape:connector-curvature="0" />
    <path
       style="fill:#edebd6;fill-opacity:1;stroke:none;stroke-width:0.26458332px;stroke-linecap:butt;stroke-linejoin:miter;stroke-opacity:1"
       d="m 21.265885,9.3927082 -4.101042,4.7294268 -1.653646,5.920052 -4.894791,6.978386 -0.330729,13.030729 -1.0914067,8.301302 c 0,0 6.5446707,6.67228 7.9478347,7.163387 1.403165,0.491106 1.18029,1.634008 1.18029,1.634008 l 0.165365,0.892969 3.354834,-2.18798 3.821989,9.397876 3.505729,7.639843 7.342187,3.175 c 0,0 13.096875,3.14193 13.229167,3.175 0.132291,0.03307 13.030728,-3.604948 17.396355,-4.001823 4.365627,-0.396875 7.276044,-8.135937 9.921874,-13.096874 2.645837,-4.960938 1.02526,-12.799219 0.33073,-15.411979 -0.69453,-2.612761 -4.239017,-8.042402 -4.239017,-8.042402 l -2.54093,-5.682859 -13.460681,-5.390885 -9.061977,2.050521 -3.73724,8.334375 c 0,0 -1.086527,1.811374 -3.96875,4.729427 -2.882222,2.91805 -8.96276,2.811198 -8.96276,2.811198 l 0.396875,4.101041 -2.976562,0.694532 -5.196066,-3.017904 c 0.11693,-3.671615 2.034502,-7.249687 2.034502,-7.249687 l 3.823538,-2.584338 c 0,0 2.584056,-2.724179 3.414263,-2.806031 0.830204,-0.08185 1.976106,-0.415478 3.03444,-1.275374 1.058333,-0.859901 1.256768,-0.363802 4.134114,-0.09922 l 1.025261,-2.604492 -0.230995,-1.902728 c 0,0 -7.951234,-1.847506 -11.2019,-3.578075 C 26.426075,23.488561 24.999677,21.080038 23.409423,18.110006 21.81917,15.139974 21.265885,9.3927082 21.265885,9.3927082 Z M 56.984637,45.491796 c 0,0 2.678907,1.5875 3.638017,1.256771 0.95912,-0.330729 2.348177,-1.02526 2.348177,-1.02526 l 1.96784,1.389062 c 0,0 -1.45521,4.7625 -1.12448,5.142839 0.33073,0.380338 2.91042,1.752864 2.91042,1.752864 0,0 0.72097,1.238779 -0.0274,2.782258 -0.74836,1.543484 -2.99362,3.975986 -2.99362,3.975986 l -5.168157,2.853055 -4.513427,0.537954 -5.402246,-0.655259 -0.73019,-3.755843 2.248959,-2.282031 2.000911,-2.546615 c 0,0 1.769396,-1.918229 1.984376,-2.976562 0.21497,-1.058333 1.32292,-5.506641 1.32292,-5.506641 z"
       id="path1500"
       inkscape:connector-curvature="0" />
    <path
       style="fill:#583474;stroke:none;stroke-width:0.26458332px;stroke-linecap:butt;stroke-linejoin:miter;stroke-opacity:1;fill-opacity:1"
       d="m 37.394345,75.546095 c 0,0 5.869908,0.467719 6.922281,0.771739 1.052375,0.304019 3.320825,0.888672 3.928864,0.724969 0.608036,-0.163703 3.250665,-0.795126 3.858701,-0.724969 0.608039,0.07016 3.203896,1.005602 3.203896,1.005602 l -1.590255,3.040189 c 0,0 -6.524717,0.467723 -8.091585,-0.210473 -1.566868,-0.678196 -3.203892,-0.04677 -3.203892,-0.04677 l -4.490128,0.11693 -2.22168,-3.344209 z"
       id="path1492"
       inkscape:connector-curvature="0" />
    <path
       style="fill:#8a6591;fill-opacity:1;stroke:none;stroke-width:0.26458332px;stroke-linecap:butt;stroke-linejoin:miter;stroke-opacity:1"
       d="M 60.71027,72.131726 C 51.215522,70.962421 47.94147,68.904447 45.60286,66.098115 43.264253,63.291785 40.925644,61.607988 38.820896,61.327355 36.716149,61.046722 32.226019,53.890573 31.22042,48.956115 L 30.030208,48.584116 29.60026,46.963543 c 0,0 -0.06615,-2.976563 1.455208,-5.291667 0,0 -1.455208,1.091406 -3.009635,3.241146 0,0 -0.628386,-1.058333 -0.463021,-2.248958 0,0 -1.984375,1.752864 -2.083594,3.340364 -0.09922,1.5875 -7.011458,12.038542 -7.011458,12.038542 0,0 1.918229,7.838281 5.721614,8.96276 3.803386,1.124479 8.003646,0.297656 8.003646,0.297656 l 5.625663,3.799353 c 0,0 3.700899,2.716012 6.578243,3.046741 2.877344,0.330729 4.398698,1.091406 4.398698,1.091406 l 0.826823,-1.157552 1.620573,-1.5875 c 0,0 -3.638021,-1.554427 -4.696354,-2.745052 -1.058334,-1.190625 -2.282032,-1.289844 -1.852084,-0.661458 0.429948,0.628385 2.910417,2.215885 1.984375,2.513541 -0.926041,0.297656 -1.918229,-0.330729 -2.513541,-1.488281 -0.595313,-1.157552 -1.785938,-2.711979 -1.5875,-3.208073 0.198437,-0.496094 2.61276,0.463021 4.464843,1.852083 1.852084,1.389063 7.540625,3.241146 8.235156,4.067969 0.694532,0.826823 4.431771,1.322917 4.431771,1.322917 z"
       id="path1486"
       inkscape:connector-curvature="0"
       sodipodi:nodetypes="cssccccccscsccscc" />
    <path
       style="fill:#583474;fill-opacity:1;stroke:none;stroke-width:0.26458332px;stroke-linecap:butt;stroke-linejoin:miter;stroke-opacity:1"
       d="m 37.838681,71.102738 c -0.888669,-3.788545 0.374179,-5.378799 0.748356,-5.846522 0.374176,-0.46772 -0.748356,-3.695001 -2.151521,-5.285253 -1.403164,-1.590254 -2.712786,-3.648228 -3.040189,-3.133736 -0.327406,0.514493 -0.42095,5.986839 -1.122532,6.127155 -0.701582,0.140316 -5.051396,-9.214117 -5.799749,-10.289879 -0.748355,-1.075758 1.122532,-6.361014 0.701583,-6.594874 -0.42095,-0.23386 -4.256268,-0.795126 -5.332028,1.216075 -1.075759,2.011204 -2.666013,4.677217 -1.683798,8.465765 0.982216,3.788544 5.191711,10.851141 5.191711,10.851141 l 5.19171,2.011204 0.678196,-0.09355 z"
       id="path1482"
       inkscape:connector-curvature="0" />
    <path
       style="fill:#8e3d75;stroke:none;stroke-width:0.26458332px;stroke-linecap:butt;stroke-linejoin:miter;stroke-opacity:1;fill-opacity:1"
       d="m 48.683333,59.233593 c 0,0 -0.363802,3.141927 0.760677,3.836458 1.124479,0.694532 -2.248959,-0.463021 -2.248959,-0.463021 l -4.365624,-6.283854 c 0,0 5.258593,-0.132291 7.639843,0.727605 l -0.983919,1.223699 -0.690288,0.825352 z"
       id="path1480"
       inkscape:connector-curvature="0" />
    <path
       style="fill:#bf7da7;stroke:none;stroke-width:0.26458332px;stroke-linecap:butt;stroke-linejoin:miter;stroke-opacity:1;fill-opacity:1"
       d="m 43.264253,39.812158 c 0,0 -1.590254,-2.712784 -1.356394,-3.133733 0.233863,-0.420949 2.432153,-0.608039 2.806332,-2.385383 0.374177,-1.777341 -1.730571,-6.688418 0.701583,-8.606077 2.43215,-1.917659 8.933481,-11.926902 9.120571,-12.95589 0.187089,-1.028988 1.543481,-3.4611403 2.759559,-3.9288617 1.216075,-0.4677217 -1.824114,3.8820897 -3.040192,6.8287357 -1.216076,2.946647 -1.449938,6.220698 0.561266,8.699623 0,0 6.501332,-6.033609 9.588295,-8.886711 3.086963,-2.853102 5.378799,-3.46114 6.314242,-4.162723 0.935444,-0.701582 2.619242,-2.6192412 3.461141,-2.6192412 0.841899,0 0.561266,2.1982922 -0.608038,3.4611402 -1.169305,1.262849 -3.040191,2.853102 -4.864306,5.799749 -1.824114,2.946646 -2.946646,4.162723 -2.432152,5.799748 0.514493,1.637026 -0.888672,5.098166 -2.104748,5.986838 -1.216076,0.888671 2.899874,-0.374178 4.864305,-1.964431 1.964431,-1.590254 5.519116,-5.051394 6.501332,-4.911078 0.982215,0.140317 0.374177,2.245064 -0.654811,3.133735 -1.028987,0.888671 -1.496709,2.712786 -0.935443,4.630445 0.561266,1.917659 0.748355,3.788545 0.04677,4.396583 -0.701582,0.608039 2.525697,0.935444 2.432153,1.683798 -0.09354,0.748355 -2.946647,0.608039 -3.274052,2.011204 0,0 -2.177188,-2.706293 -5.848282,-5.153689 -3.671094,-2.447396 -6.378368,-3.877702 -9.624219,-4.067969 -3.441933,-0.201761 -5.761133,0.250195 -6.207617,0.597461 -0.446485,0.347266 -0.185868,1.79546 -0.06894,2.286568 0.11693,0.491108 -1.286235,0.210475 -1.777343,0.561266 -0.491107,0.350791 -4.279653,3.531299 -4.279653,3.531299 z"
       id="path1472"
       inkscape:connector-curvature="0"
       sodipodi:nodetypes="ccssscscscsssssscsscccssccscc" />
    <path
       style="fill:#8e3d75;fill-opacity:1;stroke:none;stroke-width:0.26458332px;stroke-linecap:butt;stroke-linejoin:miter;stroke-opacity:1"
       d="m 46.070583,34.901081 c -0.841899,-2.19829 -0.608039,-6.454558 0.23386,-7.483546 0.841899,-1.028988 2.806332,-5.61266 3.274052,-5.706204 0.467722,-0.09354 -0.46772,3.274052 0.140316,3.88209 0.608039,0.608038 2.478927,0.841899 2.853103,0.23386 0.374176,-0.608038 0.04677,-2.759557 0.561266,-2.806329 0.514493,-0.04677 0.374176,1.075758 1.683798,1.30962 1.309621,0.233861 3.320825,-3.274051 4.34981,-3.507912 1.028989,-0.233861 1.637028,-0.140317 1.870888,0 0.23386,0.140316 -6.267471,5.098166 -6.548104,6.173925 -0.280633,1.075759 2.385382,0.04677 2.993419,-0.561265 0.608039,-0.608039 2.291836,-3.040191 2.619242,-3.133735 0.327404,-0.09354 0.09354,1.356392 0.42095,1.403164 0.327403,0.04677 1.028988,0.140317 1.216075,0.327406 0.18709,0.187088 -0.420949,1.169304 -0.140316,1.356392 0.280632,0.187089 0.935444,0 1.262848,0.187089 0.327406,0.18709 0.514495,1.169305 1.075761,1.169305 0.561266,0 1.262849,-0.09355 1.379778,-0.07016 0.11693,0.02339 -0.187089,1.590255 -1.075761,2.198294 -0.888669,0.608036 2.853103,1.075758 3.741775,0.724968 0.888671,-0.350792 1.216075,-0.561265 1.473324,-0.374179 0.257246,0.18709 -0.233863,1.122532 0.304017,1.590255 0.537882,0.467722 0.397565,2.174906 0.935445,2.19829 0.537879,0.02339 1.637024,-1.333005 1.917657,-2.455537 0.280633,-1.122532 0.163703,-2.432153 -0.374176,-2.408766 -0.537879,0.02339 -2.525697,0.327403 -2.081361,0.07016 0.444334,-0.257247 2.993417,-2.666014 2.946646,-2.993418 -0.04677,-0.327405 -3.648228,2.128132 -4.069178,1.917659 -0.420949,-0.210476 5.589273,-6.03361 6.641648,-5.378799 1.052372,0.65481 0.02339,2.876488 -0.888672,3.624842 -0.912058,0.748355 -0.935445,4.443356 -0.865285,5.261869 0.07016,0.818512 -0.774374,4.935722 -1.47596,5.239742 -0.701582,0.304019 -3.856066,-3.134995 -4.417332,-3.158382 -0.561266,-0.02339 -2.268451,-1.262848 -2.268451,-1.262848 0,0 -4.139337,-2.408767 -7.670635,-2.946646 -3.531299,-0.537879 -7.553706,0.795129 -7.553706,0.795129 0,0 0.210476,1.262848 0.187089,1.613638 -0.02339,0.350792 -3.227279,1.356394 -4.65383,2.970032 z"
       id="path1474"
       inkscape:connector-curvature="0"
       sodipodi:nodetypes="csccscsscscccccsscsccccsccccscssccscccc" />
    <path
       style="fill:#bf7da7;stroke:none;stroke-width:0.26458332px;stroke-linecap:butt;stroke-linejoin:miter;stroke-opacity:1;fill-opacity:1"
       d="m 19.504235,52.347193 c 0,0 -0.187331,3.507819 -1.824356,3.694909 -1.637026,0.187086 -0.701583,6.127152 -0.701583,6.127152 0,0 -5.519116,-2.338608 -5.378799,-5.3788 0.140316,-3.040189 4.022406,-5.378799 4.022406,-5.378799 0,0 2.900359,0.187275 3.882332,0.935538 z"
       id="path1459"
       inkscape:connector-curvature="0" />
    <path
       style="fill:#8e3d75;stroke:none;stroke-width:0.99999994px;stroke-linecap:butt;stroke-linejoin:miter;stroke-opacity:1;fill-opacity:1"
       d="M 40.666016 162.8125 L 32.203125 161.26562 L 30.582031 176.45703 L 37.123047 205.625 C 37.123047 205.625 49.874388 214.62541 51.441406 206.50977 C 53.008429 198.39413 64.701172 203.50391 64.701172 203.50391 C 64.34762 195.90251 73.716797 197.84766 73.716797 197.84766 C 54.448138 175.04346 38.271484 176.10352 38.271484 176.10352 L 39.421875 164.43555 L 40.666016 162.8125 z "
       id="path1457"
       transform="scale(0.26458333)" />
    <path
       style="fill:#bf7da7;fill-opacity:1;stroke:none;stroke-width:0.26458332px;stroke-linecap:butt;stroke-linejoin:miter;stroke-opacity:1"
       d="m 23.151041,5.4901041 -4.980058,3.639571 c 0,0 -0.865338,2.1516369 -1.917712,3.7418909 -1.052374,1.590253 -3.414262,-2.409156 -3.414262,-2.409156 0,0 0.04669,3.578374 -0.444417,5.636349 -0.491108,2.057976 -4.0927737,4.653979 -4.0927737,4.653979 0,0 -1.40267,3.835185 -1.005106,6.08025 0.397563,2.245064 2.478918,3.975468 2.478918,3.975468 L 4.1863078,30.504598 c 1.3563925,1.777344 5.1681595,4.349604 5.1681595,4.349604 l -0.834057,7.813993 2.2391397,0.409278 3.131075,-4.084505 c 0,0 2.711978,-4.233333 1.885156,-5.55625 -0.826823,-1.322914 -4.828646,-2.414323 -4.828646,-2.414323 l 1.256771,-0.363802 c 0,0 2.765844,-0.902444 2.480469,-3.770312 -0.394941,-3.968944 3.538801,-4.365625 3.274218,-7.408333 -0.264583,-3.042708 1.653646,-2.315105 2.513542,-5.787761 0.859895,-3.472656 2.678906,-8.2020829 2.678906,-8.2020829 z"
       id="path1452"
       inkscape:connector-curvature="0"
       sodipodi:nodetypes="ccscscscccccccccsssc" />
    <path
       style="fill:#8e3d75;stroke:none;stroke-width:0.26458332px;stroke-linecap:butt;stroke-linejoin:miter;stroke-opacity:1;fill-opacity:1"
       d="m 25.433072,26.441798 c 0,0 2.745053,1.504819 5.32474,1.835548 2.579688,0.330729 3.40651,0.595313 3.571875,1.372526 0.165365,0.777214 -0.429948,1.719789 -3.175,1.587497 -2.745052,-0.132289 -4.183724,-1.488278 -4.48138,-2.530075 -0.297657,-1.041797 -1.240235,-2.265496 -1.240235,-2.265496 z"
       id="path1450"
       inkscape:connector-curvature="0" />
    <path
       style="fill:#1f2138;fill-opacity:1;stroke:none;stroke-width:0.26458332px;stroke-linecap:butt;stroke-linejoin:miter;stroke-opacity:1"
       d="m 40.084374,33.304427 c 0,0 1.041797,-0.644922 1.157553,-2.067058 0.115755,-1.422132 0.148828,-2.282028 0.281119,-2.331638 0.132292,-0.04961 0.661459,-0.611849 0.429948,-0.826822 -0.23151,-0.214974 -4.911328,-0.297657 -6.994922,-1.488282 -2.083593,-1.190626 -5.291666,-2.116667 -6.085416,-2.215886 -0.79375,-0.09922 -4.270497,-3.271448 -5.954295,-8.369614 -1.683798,-5.098166 -1.028988,-10.1495603 -1.028988,-10.1495603 0,0 -2.291836,1.8007282 -3.203893,2.0345892 -0.912057,0.2338607 -4.65383,3.1571211 -1.870887,7.2029131 0,0 -0.257246,-2.666013 0.912058,-4.139336 1.169304,-1.4733233 2.455539,-2.9934188 3.22728,-3.3909822 -0.07016,6.6416472 2.428621,13.9015742 7.621068,17.5395942 5.192448,3.638021 11.064412,4.186077 11.765994,4.186077 0.701583,0 0.42095,1.426551 0.09355,1.590254 -0.327405,0.163702 -0.350164,2.425751 -0.350164,2.425751 z"
       id="path1434"
       inkscape:connector-curvature="0" />
    <path
       style="fill:#1f2138;fill-opacity:1;stroke:none;stroke-width:0.26458332px;stroke-linecap:butt;stroke-linejoin:miter;stroke-opacity:1"
       d="m 10.980208,7.0114601 c 0,0 4.861718,6.9453129 6.052343,9.7895829 1.190625,2.844271 2.414323,3.803385 3.373438,3.902604 0.959114,0.09922 3.902604,3.241146 4.067968,4.53099 0.165365,1.289844 -1.355989,1.455209 -2.315104,1.058333 -0.959114,-0.396875 -3.96875,-1.620573 -4.663281,-2.645833 -0.694531,-1.025261 -2.711979,-1.852084 -2.711979,-1.852084 0,0 0.79375,-0.826823 0.859896,-1.984375 0.06615,-1.157552 -0.760677,-6.283853 -2.513542,-8.202083 0,0 0.628386,4.332553 -1.322916,6.283855 -1.951302,1.951302 -3.1749999,2.811198 -3.7041666,4.43177 -0.5291666,1.620573 -0.3307291,6.548438 1.2567708,7.441407 1.5874998,0.892968 3.9026038,0.429947 4.9278648,-0.33073 1.02526,-0.760677 2.513541,-0.892968 3.042708,-0.826823 0.529167,0.06615 0.727604,0.992188 1.620573,0.892969 -1.488281,0.396875 -1.951302,-0.694531 -2.480469,-0.396875 -0.529167,0.297656 -3.108854,2.14974 -5.853906,2.248958 -2.745052,0.09922 -5.7877603,-0.496093 -5.7877603,-0.496093 0,0 3.5057291,3.274218 4.8286458,3.571875 1.3229165,0.297656 -0.2976563,1.752864 1.4882815,2.017448 1.785937,0.264583 5.754687,-1.157553 6.449218,-2.116667 0.694532,-0.959115 4.167188,-1.091406 4.167188,-1.091406 0,0 -0.06615,0.694531 -0.595313,1.322916 1.190625,-0.330729 1.719792,-1.918229 1.719792,-1.918229 0,0 2.38125,2.414323 3.042708,2.414323 0.661458,0 3.439583,-0.165365 3.439583,-0.165365 0,0 -3.208072,1.091407 -4.894791,1.157553 -1.686719,0.06614 -7.044531,4.696354 -9.161198,5.192447 -2.116667,0.496094 -3.869531,1.389063 -4.167187,4.663281 -0.297657,3.274219 1.355989,5.589323 2.315104,6.945313 0.959114,1.355989 1.322916,4.299479 1.322916,4.299479 0,0 -0.760677,-0.363802 -1.5875,-0.363802 0.56224,0.892969 0.396875,2.711979 1.35599,3.208073 0.959115,0.496093 3.241146,2.182812 3.704167,3.604948 C 16.404166,62.47474 14.320573,62.772397 12.038541,60.953386 9.7565102,59.134376 7.7390623,52.354428 6.680729,47.922657 5.6223957,43.490887 5.9861978,41.60573 6.3499999,41.506512 c 0.363802,-0.09922 0.9921874,-1.322917 0.9921874,-2.546615 0,-1.223698 1.2236979,-2.976562 1.2236979,-3.638021 0,-0.661458 -3.7041666,-2.546614 -5.1924478,-5.390885 0,0 3.571875,0.595313 4.729427,0.363802 0,0 -1.8851562,-3.935677 -0.8598958,-8.036718 1.0252604,-4.101042 3.9356774,-2.14974 5.0270834,-7.375261 1.091406,-5.2255204 -0.79375,-5.7216146 -1.289844,-7.8713539 z"
       id="path1436"
       inkscape:connector-curvature="0" />
    <path
       style="fill:#8e3d75;stroke:none;stroke-width:0.26458332px;stroke-linecap:butt;stroke-linejoin:miter;stroke-opacity:1;fill-opacity:1"
       d="m 10.126174,46.594122 c 0,0 0.140316,2.361996 0.771741,3.180508 0,0 -1.2160766,-0.608037 -1.3563931,-1.099145 -0.1403165,-0.491108 0.5846521,-2.081363 0.5846521,-2.081363 z"
       id="path1438"
       inkscape:connector-curvature="0" />
    <path
       style="fill:#f2dd82;fill-opacity:1;stroke:none;stroke-width:0.26458332px;stroke-linecap:butt;stroke-linejoin:miter;stroke-opacity:1"
       d="m 14.022916,26.160678 c 0,0 -2.778125,-2.61276 -3.208073,-5.159375 0,0 -1.8520827,2.381251 -1.6867187,4.034897 0.165365,1.653645 2.2158857,2.447395 2.6458337,2.182812 0.429948,-0.264583 2.248958,-1.058334 2.248958,-1.058334 z"
       id="path1440"
       inkscape:connector-curvature="0" />
    <path
       style="fill:#f2dd82;fill-opacity:1;stroke:none;stroke-width:0.26458332px;stroke-linecap:butt;stroke-linejoin:miter;stroke-opacity:1"
       d="m 15.411979,32.047658 c -1.091407,0.694529 -4.200261,0.59531 -5.060156,1.9513 -0.8598967,1.355989 4.034895,0.03307 4.530989,-0.363802 0.496094,-0.396875 0.529167,-1.587498 0.529167,-1.587498 z"
       id="path1442"
       inkscape:connector-curvature="0" />
    <path
       style="fill:#f2dd82;fill-opacity:1;stroke:none;stroke-width:0.26458332px;stroke-linecap:butt;stroke-linejoin:miter;stroke-opacity:1"
       d="m 19.314583,17.892449 c -1.322917,-1.355989 -1.752865,-3.770312 -0.926042,-5.093229 0.826823,-1.322916 2.215885,-2.645833 2.215885,-2.645833 0,0 -0.09922,4.167188 0.03307,4.828646 0.132292,0.661458 -1.322916,2.910416 -1.322916,2.910416 z"
       id="path1444"
       inkscape:connector-curvature="0" />
    <path
       style="fill:#60e9ef;fill-opacity:1;stroke:none;stroke-width:0.26458332px;stroke-linecap:butt;stroke-linejoin:miter;stroke-opacity:1"
       d="m 27.582812,28.012763 c 0,0 1.901693,1.207161 3.654557,1.174088 1.752865,-0.03307 2.860808,0.644922 1.752865,1.207162 -1.107943,0.562239 -4.663281,-0.09922 -5.407422,-2.38125 z"
       id="path1448"
       inkscape:connector-curvature="0" />
    <path
       style="fill:#8e3d75;stroke:none;stroke-width:0.26458332px;stroke-linecap:butt;stroke-linejoin:miter;stroke-opacity:1;fill-opacity:1"
       d="m 21.728905,40.15052 c 4.994011,-1.091406 5.853907,-2.447395 6.945313,-2.778125 1.091407,-0.330729 2.811198,-2.315104 3.274219,-2.579687 0.463021,-0.264583 2.811198,-0.463021 4.001823,-1.389063 -1.058334,1.620575 -3.373438,1.422138 -3.638021,1.951304 -0.264583,0.529167 -5.159375,4.7625 -6.945312,5.060156 -1.785938,0.297657 -3.638022,-0.264585 -3.638022,-0.264585 z"
       id="path1463"
       inkscape:connector-curvature="0" />
    <path
       style="fill:#1f2138;stroke:none;stroke-width:0.99999994px;stroke-linecap:butt;stroke-linejoin:miter;stroke-opacity:1;fill-opacity:1"
       d="M 227.08594 138.17188 C 222.98266 137.86597 210.0625 142.5 207 145.125 C 203.5 148.125 203.875 158.875 206 163.75 C 208.125 168.625 210.875 170.25 210.25 171.75 C 209.625 173.25 206.625 174.25 205.625 183 C 204.625 191.75 204.875 197.375 200.375 202.25 C 195.875 207.125 184 223.875 184 223.875 C 184 223.875 199.875 206.125 202.875 201.75 C 205.875 197.375 209.125 180.125 210.75 177.875 C 212.375 175.625 214.5 174.75 216.125 174.75 C 217.75 174.75 226 179 230.375 177.75 C 231.61468 177.39581 233.97797 175.91252 236.69727 174.0332 C 239.87411 173.99238 242.14669 176.93192 243.42578 179.16992 C 240.30089 184.27316 237.72364 191.32198 238 193.625 C 238.375 196.75 231.75 203.375 231.875 207.5 C 231.99999 211.625 237.25 214.875 242 210.125 C 238.625 209.87498 236.75 209.25 238.375 205.375 C 240 201.5 240 200.625 240.875 200.375 C 241.75 200.12502 247.625 205.5 250.625 205.25 C 253.625 204.99998 253.375 213.375 248.375 219.375 C 243.375 225.375 231.375 236.875 218.125 238.875 C 204.875 240.875 190.625 238.75001 179.125 231.25 C 167.625 223.75 155.75 199.25 155.75 199.25 C 163.5 228 177.75001 247 201.25 246 C 224.75 245 248.5 229.5 252.5 217 C 256.5 204.5 254.125 203.75 255.25 202 C 256.375 200.25 262.5 192.25 261.125 191.625 C 259.75 191 251.125 202.375 248.25 201.5 C 245.375 200.625 242.125 196.875 244.625 189.625 C 247.125 182.375 256.875 169.625 258.375 164.75 C 259.875 159.875 253.125 156.5 250.75 159.375 C 248.375 162.25 236.75 175.75 228.75 175.75 C 220.75 175.75 208.75 166.75 208 161 C 207.25 155.25 207.87501 148.125 210.5 145.625 C 213.125 143.125 225.75 139.125 226.5 140.25 C 227.25 141.375 222.625 145 219.375 144.875 C 225.62501 145.75001 229.625 140.75 228.25 138.625 C 228.07812 138.35937 227.67212 138.21558 227.08594 138.17188 z M 253.75 161.75 C 254.875 161.75 251.25 170.875 246.875 174.75 C 246.40851 175.16317 245.93768 175.68304 245.4668 176.25781 C 243.68188 174.78821 241.00971 172.71339 239.38086 172.15039 C 245.78876 167.52189 253.04627 161.75 253.75 161.75 z "
       transform="scale(0.26458333)"
       id="path1465" />
    <path
       style="fill:#1f2138;stroke:none;stroke-width:0.26458332px;stroke-linecap:butt;stroke-linejoin:miter;stroke-opacity:1;fill-opacity:1"
       d="m 35.733934,44.582921 c 5.893292,-1.403165 9.214117,-8.044812 10.196332,-10.009246 0.982216,-1.96443 3.367596,-4.77076 5.3788,-4.911076 2.011203,-0.140317 6.314241,-1.496709 12.254306,1.309621 5.940065,2.806329 11.445999,8.053821 13.959541,14.073092 2.513542,6.019271 2.116667,18.388541 -3.175,25.201562 -5.291667,6.813021 -13.096875,10.914062 -22.026562,10.781771 -8.929685,-0.132292 -8.863539,-0.926042 -10.252602,-0.132292 -1.389062,0.79375 -8.466666,1.389063 -12.170833,-0.859896 -3.704167,-2.248958 -4.564063,-4.630208 -4.564063,-4.630208 0,0 3.770313,3.307292 7.805209,2.579688 0,0 -7.9375,-3.439582 -9.988021,-8.86354 0,0 1.984375,1.719791 4.101042,2.182812 -4.497917,-3.108854 -7.9375,-7.011458 -8.929688,-14.155208 0,0 1.852084,6.416146 4.630209,8.532812 -0.06615,-1.521354 -3.027205,-5.239991 -3.448368,-13.33562 0,0 2.244821,10.149467 6.641405,12.675164 4.396584,2.525697 11.693042,6.080382 11.693042,6.080382 0,0 -5.425572,-1.356393 -7.296458,-2.478925 0,0 0.327405,1.449937 1.216076,2.338608 0,0 -2.502311,-0.608038 -3.180507,-1.426551 0.888671,1.356393 2.478924,2.455539 6.314242,3.952248 3.835318,1.49671 6.548103,3.741774 6.548103,3.741774 0,0 -2.338608,0.748354 -4.396583,0.467721 0,0 2.899874,1.917659 4.5369,1.824115 1.637026,-0.09354 3.133735,-0.42095 3.133735,-0.42095 0,0 3.367596,1.683798 5.799749,1.028988 2.432152,-0.65481 2.525697,-2.478925 2.525697,-2.478925 0,0 -1.730571,-0.04677 -1.824115,-0.701582 -0.09354,-0.654811 -2.057975,-1.824115 -2.759558,-1.262849 -0.701582,0.561266 -2.011203,2.525697 -3.320824,2.432153 -1.30962,-0.09355 -0.795126,-1.07576 0.140317,-1.07576 0.935443,0 2.946646,-1.637026 3.367596,-2.525697 0.420949,-0.888671 -1.917659,-2.057975 -4.022406,-1.777342 2.198291,-1.169305 3.788545,-0.280633 4.396583,-0.654811 0.608038,-0.374177 2.619242,-0.280633 5.332027,0.187089 2.712786,0.467722 6.361015,0.280633 9.447978,-1.964431 3.086963,-2.245064 2.80633,-1.07576 4.022406,-2.057975 1.216076,-0.982216 2.15152,-2.338609 3.88209,-2.853103 0,0 -4.817533,4.256268 -4.303039,5.472344 0.514493,1.216076 5.560161,-2.40794 8.27214,-9.617835 2.711979,-7.209896 1.25677,-16.867188 -2.38125,-21.43125 -3.638021,-4.564062 -8.323043,-9.081434 -16.04045,-9.970105 -7.717408,-0.888671 -10.102788,2.853102 -12.113992,7.623863 -2.011203,4.770761 -7.015827,7.483548 -9.401206,7.10937 z"
       id="path1470"
       inkscape:connector-curvature="0" />
    <path
       style="fill:#8e3d75;stroke:none;stroke-width:0.26458332px;stroke-linecap:butt;stroke-linejoin:miter;stroke-opacity:1;fill-opacity:1"
       d="m 53.115103,16.404168 c 0.297657,-0.677995 0.942576,-2.645833 1.107941,-3.803385 0.165364,-1.157552 1.620572,-3.3072917 2.232421,-3.7207031 0.611849,-0.4134115 1.107943,-0.8268229 1.273308,-0.611849 0.165364,0.214974 -0.297657,1.5213542 -1.124479,2.9600261 -0.826823,1.438672 -3.505727,6.680729 -3.505727,6.680729 0,0 0.429945,-1.438672 0.01654,-1.504818 z"
       id="path1476"
       inkscape:connector-curvature="0" />
    <path
       style="fill:#8e3d75;stroke:none;stroke-width:0.26458332px;stroke-linecap:butt;stroke-linejoin:miter;stroke-opacity:1;fill-opacity:1"
       d="m 68.170432,15.934968 c 0,0 -4.5369,0.631425 -5.542502,1.099146 -1.005602,0.467722 2.104747,-3.063577 3.811931,-3.765159 1.707185,-0.701583 1.753958,-0.631424 2.57247,-0.140317 0.818512,0.491108 2.408767,-1.333006 2.595853,-1.73057 0.18709,-0.397563 0.841899,0.02339 1.028989,-0.327405 0.187089,-0.350791 0.23386,-1.7305701 0.584652,-2.1749055 0.35079,-0.4443357 1.309622,-0.7015827 1.683798,-0.1169305 0.374176,0.5846522 -0.818512,3.437754 -1.333008,3.975634 -0.514493,0.53788 -1.543481,2.549083 -2.034587,2.595855 -0.491109,0.04677 -3.624842,3.531299 -4.209495,4.326426 -0.584652,0.795126 0.163701,-1.169304 -0.04677,-1.169304 -0.210476,0 -1.122532,-0.02339 -0.841899,-0.374178 0.280633,-0.350791 2.245064,-2.221678 1.730571,-2.198292 z"
       id="path1478"
       inkscape:connector-curvature="0" />
    <path
       style="fill:#1f2138;stroke:none;stroke-width:0.26458332px;stroke-linecap:butt;stroke-linejoin:miter;stroke-opacity:1;fill-opacity:1"
       d="m 34.658175,64.905426 c -2.408766,-2.45554 -6.945667,-9.658453 -7.085983,-11.622884 -0.140317,-1.96443 1.449938,-4.41997 1.449938,-4.41997 0,0 0.304019,2.361996 0.795125,2.946646 0.491109,0.584653 0.280633,-1.099145 0.841899,-1.566865 0.561266,-0.467723 4.186108,5.215096 4.794147,5.261867 0.608039,0.04677 0.163703,-0.77174 0.420949,-0.748353 0.257247,0.02339 0.958829,0.374176 1.052375,0.09354 0.09354,-0.280633 -3.835318,-3.250665 -4.747376,-6.898894 -0.912056,-3.648228 -0.397563,-5.448958 -0.397563,-5.448958 0,0 -1.309621,2.899875 -0.561266,6.45456 0,0 -1.421723,-1.463406 -1.851671,-2.620958 0,0 -0.165364,0.959115 -0.06615,1.422136 0,0 -1.75286,-2.050521 -2.116662,-2.050521 -0.363802,0 -1.81901,3.042708 -1.785938,3.803385 0.03307,0.760677 0.694532,3.571875 0.694532,3.571875 0,0 -1.885157,-1.521354 -2.182813,-4.365625 -0.297656,-2.84427 2.315104,-6.945312 2.315104,-6.945312 0,0 -2.579687,1.686719 -3.075781,5.953125 -0.496094,4.266406 3.274219,7.573698 4.266406,10.087239 0,0 1.5875,4.200261 3.638021,5.920052 0,0 -2.61276,-3.340364 -3.373437,-7.14375 2.282031,1.653646 2.872861,5.886632 6.976144,8.317665 z"
       id="path1484"
       inkscape:connector-curvature="0" />
    <path
       style="fill:#8a6591;stroke:none;stroke-width:0.26458332px;stroke-linecap:butt;stroke-linejoin:miter;stroke-opacity:1;fill-opacity:1"
       d="m 36.793619,71.735155 c -1.174088,0 -0.975651,1.422136 -0.297656,1.63711 0.677995,0.214974 2.232422,1.041797 2.645833,1.041797 0.413412,0 0.463021,-1.025261 -0.115755,-1.141016 -0.578776,-0.115755 -1.620573,-1.537891 -2.232422,-1.537891 z"
       id="path1488"
       inkscape:connector-curvature="0" />
    <path
       style="fill:#1f2138;stroke:none;stroke-width:0.26458332px;stroke-linecap:butt;stroke-linejoin:miter;stroke-opacity:1;fill-opacity:1"
       d="m 16.304947,43.788541 c 0,0 1.63711,2.579688 2.629297,2.860807 0.992188,0.28112 1.686719,0.611849 1.686719,0.611849 0,0 -1.885156,0.28112 -2.877344,-0.578776 -0.992187,-0.859896 -1.438672,-2.89388 -1.438672,-2.89388 z"
       id="path1494"
       inkscape:connector-curvature="0" />
    <path
       style="fill:#8a6591;stroke:none;stroke-width:0.26458332px;stroke-linecap:butt;stroke-linejoin:miter;stroke-opacity:1;fill-opacity:1"
       d="m 28.575,42.630989 c 0,0 1.289843,-2.397786 2.645833,-2.860807 0,0 -0.810287,-0.380337 -1.07487,-0.297655 0,0 0.380338,-0.694531 0.79375,-1.074869 -1.174089,0.314192 -2.348176,2.298564 -2.364713,4.233331 z"
       id="path1496"
       inkscape:connector-curvature="0" />
    <path
       style="fill:#583474;stroke:none;stroke-width:0.26458332px;stroke-linecap:butt;stroke-linejoin:miter;stroke-opacity:1;fill-opacity:1"
       d="m 29.997135,42.945182 c -0.529167,0 0.132292,-1.207162 0.578776,-1.653646 0.446484,-0.446484 0.876432,-0.56224 1.141016,-0.396875 0.264583,0.165365 -0.744141,1.35599 -0.859896,1.604036 -0.115755,0.248047 -0.644922,0.446485 -0.859896,0.446485 z"
       id="path1498"
       inkscape:connector-curvature="0" />
    <path
       style="fill:#1f2138;fill-opacity:1;stroke:none;stroke-width:0.26458332px;stroke-linecap:butt;stroke-linejoin:miter;stroke-opacity:1"
       d="m 13.49375,64.624478 c 0,0 1.029008,1.146234 0.608058,1.590569 -0.42095,0.444334 -6.3610147,0.280633 -8.2085152,2.057975 -1.8475004,1.777341 -3.9990201,3.788545 -1.7071839,6.314241 0,0 -0.4677217,-1.426549 0.070158,-2.338606 0,0 0.2338611,1.052374 1.333007,1.543481 0,0 -0.9588294,-1.169304 -0.1403165,-1.964431 0.8185129,-0.795126 1.8241145,-1.707184 3.390982,-1.543481 1.5668676,0.163702 3.4377546,0.04677 3.9054756,-0.350791 0.467722,-0.397564 2.923261,-1.800729 3.203894,-2.595856 0.280633,-0.795126 -1.683838,-2.502942 -2.455559,-2.713101 z"
       id="path1505"
       inkscape:connector-curvature="0"
       sodipodi:nodetypes="ccscccsscsc" />
    <path
       style="fill:#1f2138;fill-opacity:1;stroke:none;stroke-width:0.26458332px;stroke-linecap:butt;stroke-linejoin:miter;stroke-opacity:1"
       d="m 19.10643,65.840868 c 0,0 -0.163703,3.648229 -0.608039,3.975635 -0.444335,0.327406 -4.794147,2.525696 -5.332027,3.180508 -0.537879,0.65481 -0.958829,1.473322 -1.169304,1.800728 -0.210474,0.327406 -2.9700321,3.063576 -2.8764876,4.630444 0.093544,1.566868 0.9588296,2.221677 2.2450636,1.964431 -1.6837976,-0.935442 -1.4031646,-1.987816 -0.748354,-2.549082 0.65481,-0.561266 1.637026,-0.865285 1.637026,-0.865285 0,0 -0.280633,0.841899 0.23386,1.426551 0.514494,0.584652 2.198292,0.397564 2.198292,0.397564 0,0 -1.987817,-0.561266 -1.683798,-2.128134 0.304019,-1.566867 2.829716,-3.99902 4.349812,-4.583672 1.520095,-0.584652 3.086963,-0.678197 3.34421,-0.95883 0.257247,-0.280633 -1.590254,-6.290858 -1.590254,-6.290858 z"
       id="path1507"
       inkscape:connector-curvature="0"
       sodipodi:nodetypes="ccscscscscsssc" />
    <path
       style="fill:#edebd6;stroke:none;stroke-width:0.26458332px;stroke-linecap:butt;stroke-linejoin:miter;stroke-opacity:1;fill-opacity:1"
       d="m 54.887137,26.669179 c 1.870885,-1.028986 9.354431,-8.839938 10.0794,-9.190729 0.724969,-0.350792 1.753957,-0.865285 1.753957,-0.865285 0,0 -2.08136,1.660412 -2.572469,2.26845 -0.491107,0.608038 -6.711805,7.179527 -9.260888,7.787564 z"
       id="path1509"
       inkscape:connector-curvature="0" />
    <path
       style="fill:#edebd6;stroke:none;stroke-width:0.26458332px;stroke-linecap:butt;stroke-linejoin:miter;stroke-opacity:1;fill-opacity:1"
       d="m 65.021351,30.096356 c 1.02526,0 6.165884,-2.865911 7.031169,-3.052998 -2.595853,1.449937 -4.427274,3.065805 -7.031169,3.052998 z"
       id="path1511"
       inkscape:connector-curvature="0" />
    <path
       style="fill:#edebd6;stroke:none;stroke-width:0.26458332px;stroke-linecap:butt;stroke-linejoin:miter;stroke-opacity:1;fill-opacity:1"
       d="m 50.09299,21.009748 c 0.491107,-0.584652 2.549083,-4.256267 2.549083,-4.256267 0,0 -1.543483,3.788546 -2.549083,4.256267 z"
       id="path1513"
       inkscape:connector-curvature="0" />
  </g>
</svg>
