<?xml version="1.0" encoding="UTF-8" standalone="no"?>
<!-- Created with Inkscape (http://www.inkscape.org/) -->

<svg
   xmlns:dc="http://purl.org/dc/elements/1.1/"
   xmlns:cc="http://creativecommons.org/ns#"
   xmlns:rdf="http://www.w3.org/1999/02/22-rdf-syntax-ns#"
   xmlns:svg="http://www.w3.org/2000/svg"
   xmlns="http://www.w3.org/2000/svg"
   xmlns:sodipodi="http://sodipodi.sourceforge.net/DTD/sodipodi-0.dtd"
   xmlns:inkscape="http://www.inkscape.org/namespaces/inkscape"
   width="144"
   height="144"
   viewBox="0 0 38.099999 38.100001"
   version="1.1"
   id="svg8"
   inkscape:version="0.92.4 (5da689c313, 2019-01-14)"
   sodipodi:docname="FUIOS-Green Plesioth Icon.svg">
  <defs
     id="defs2" />
  <sodipodi:namedview
     id="base"
     pagecolor="#ffffff"
     bordercolor="#666666"
     borderopacity="1.0"
     inkscape:pageopacity="0.0"
     inkscape:pageshadow="2"
     inkscape:zoom="1.979899"
     inkscape:cx="-9.8801369"
     inkscape:cy="63.93885"
     inkscape:document-units="px"
     inkscape:current-layer="layer1"
     showgrid="false"
     units="px"
     inkscape:window-width="1304"
     inkscape:window-height="745"
     inkscape:window-x="-8"
     inkscape:window-y="-8"
     inkscape:window-maximized="1"
     inkscape:snap-smooth-nodes="true">
    <inkscape:grid
       type="xygrid"
       id="grid865" />
  </sodipodi:namedview>
  <metadata
     id="metadata5">
    <rdf:RDF>
      <cc:Work
         rdf:about="">
        <dc:format>image/svg+xml</dc:format>
        <dc:type
           rdf:resource="http://purl.org/dc/dcmitype/StillImage" />
        <dc:title />
      </cc:Work>
    </rdf:RDF>
  </metadata>
  <g
     inkscape:label="Layer 1"
     inkscape:groupmode="layer"
     id="layer1"
     transform="translate(0,-258.89998)">
    <path
       style="fill:#f6b678;fill-opacity:1;stroke:none;stroke-width:0.26458332px;stroke-linecap:butt;stroke-linejoin:miter;stroke-opacity:1"
       d="m 21.298959,294.35414 h -2.645834 v -5.55625 h 2.116667 v -14.2875 c 0,-1.5875 -1.322917,-3.70416 -3.704167,-3.70416 h -6.879166 c -5.2916672,0 -8.4666672,-4.49792 -8.4666672,-7.14375 v -1.32292 l 3.439583,1.32292 17.1979172,2.64583 3.96875,5.29167 1.058334,14.55208 -2.38125,6.61458 -2.38125,1.32292 z"
       id="path1118"
       inkscape:connector-curvature="0"
       sodipodi:nodetypes="ccccssssc" />
    <path
       style="fill:#953264;fill-opacity:1;stroke:none;stroke-width:0.26458332px;stroke-linecap:butt;stroke-linejoin:miter;stroke-opacity:1"
       d="m 13.361459,286.15206 v 2.11667 h -1.322917 v -2.11667 l 0.529167,-0.26458 z"
       id="path1068"
       inkscape:connector-curvature="0"
       sodipodi:nodetypes="cccccc" />
    <path
       style="fill:#953264;fill-opacity:1;stroke:none;stroke-width:0.26458332px;stroke-linecap:butt;stroke-linejoin:miter;stroke-opacity:1"
       d="m 13.361459,281.65414 v 2.38125 l -0.529167,0.52918 -0.79375,-0.52918 v -2.38125 l 0.529167,-0.26458 z"
       id="path1066"
       inkscape:connector-curvature="0"
       sodipodi:nodetypes="ccccccc" />
    <path
       style="fill:#953264;fill-opacity:1;stroke:none;stroke-width:0.26458332px;stroke-linecap:butt;stroke-linejoin:miter;stroke-opacity:1"
       d="m 16.271875,281.65414 v 1.5875 l -0.79375,0.26459 -0.79375,-0.26459 v -1.5875 l 0.79375,-0.52916 z"
       id="path1064"
       inkscape:connector-curvature="0"
       sodipodi:nodetypes="ccccccc" />
    <path
       style="fill:#953264;fill-opacity:1;stroke:none;stroke-width:0.26458332px;stroke-linecap:butt;stroke-linejoin:miter;stroke-opacity:1"
       d="m 18.917709,281.65414 v 1.5875 l -0.529167,0.52917 -0.79375,-0.52917 v -1.5875 l 0.529167,-0.52916 z"
       id="path1062"
       inkscape:connector-curvature="0"
       sodipodi:nodetypes="ccccccc" />
    <path
       style="fill:#953264;fill-opacity:1;stroke:none;stroke-width:0.26458332px;stroke-linecap:butt;stroke-linejoin:miter;stroke-opacity:1"
       d="m 18.917709,276.09789 v 2.38126 l -2.116667,0.26459 -2.116666,-0.26459 h -1.322917 l -0.79375,0.26459 -0.529167,-0.26459 v -2.38126 l 3.704167,-0.52916 z"
       id="path1048"
       inkscape:connector-curvature="0"
       sodipodi:nodetypes="cccccccccc" />
    <path
       style="fill:#953264;fill-opacity:1;stroke:none;stroke-width:0.26458332px;stroke-linecap:butt;stroke-linejoin:miter;stroke-opacity:1"
       d="m 9.3927084,281.65414 v -2.91041 l -0.7937499,-0.26459 -0.5291667,0.26459 H 7.0114585 l -0.5291667,-0.26459 -0.2645834,0.26459 10e-8,2.38125 0.2645832,0.79375 h 2.1166667 z"
       id="path1015"
       inkscape:connector-curvature="0"
       sodipodi:nodetypes="ccccccccccc" />
    <path
       style="fill:#953264;fill-opacity:1;stroke:none;stroke-width:0.26458332px;stroke-linecap:butt;stroke-linejoin:miter;stroke-opacity:1"
       d="m 14.948959,259.42914 h 2.645833 v 1.5875 h -2.645833 l -0.529167,-0.26458 -0.79375,0.26458 h -2.38125 l -0.264583,-0.79375 0.264583,-0.79375 h 2.38125 l 0.79375,0.52918 z"
       id="path953"
       inkscape:connector-curvature="0" />
    <path
       style="fill:#f2e3bc;fill-opacity:1;stroke:none;stroke-width:0.26458332px;stroke-linecap:butt;stroke-linejoin:miter;stroke-opacity:1"
       d="m 9.128125,259.42914 v 2.91042 l 0.79375,0.26459 0.529167,-0.26459 v -1.32292 h 0.79375 v -1.5875 z m 4.497917,0 v 1.5875 h 1.322916 v -1.5875 z"
       id="path949"
       inkscape:connector-curvature="0" />
    <path
       style="fill:#256f4e;fill-opacity:1;stroke:none;stroke-width:0.26458332px;stroke-linecap:butt;stroke-linejoin:miter;stroke-opacity:1"
       d="M 3.8364585,262.33956 H 18.388542 c 5.55625,0 10.583334,5.02708 10.583334,13.22917 l -1e-6,10.58333 h 1.852084 v 8.20209 h 1.322917 v 1.85208 h -2.910417 v -5.29167 h -1.5875 c 0,1.05833 -1.058333,3.43958 -3.704167,3.43958 l 0.79375,-2.91041 1.5875,-3.43959 v -11.90625 l -3.96875,-7.9375 -3.96875,-2.64583 H 6.4822918 l -2.6458333,-2.38125 z"
       id="path956"
       inkscape:connector-curvature="0"
       sodipodi:nodetypes="cssc" />
    <path
       style="fill:#953264;fill-opacity:1;stroke:none;stroke-width:0.26458332px;stroke-linecap:butt;stroke-linejoin:miter;stroke-opacity:1"
       d="m 13.626042,267.89581 -0.264584,0.52917 0.264584,0.52916 h 2.116666 l 0.264584,-0.52916 -0.264584,-0.52917 z m 4.233333,0 -0.264583,0.52917 0.264583,0.52916 h 1.852083 v -1.05833 z"
       id="path910"
       inkscape:connector-curvature="0" />
    <path
       style="fill:#f06825;fill-opacity:1;stroke:none;stroke-width:0.26458332px;stroke-linecap:butt;stroke-linejoin:miter;stroke-opacity:1"
       d="m 1.7197918,262.33956 4.7624999,4.7625 H 17.330209 c 4.497917,0 7.408333,3.70417 7.408333,11.1125 v 9.26042 c 0,3.96875 -3.439583,6.87917 -3.439583,6.87917 h 2.645833 c 0,0 3.175,-1.85208 3.175,-7.9375 0,0 0,-3.17501 0,-8.20209 0,-5.02708 -2.38125,-13.49374 -9.525,-13.49374 -7.14375,0 -11.3770835,0 -11.3770835,0 l -2.38125,-2.38126 z"
       id="path867"
       inkscape:connector-curvature="0"
       sodipodi:nodetypes="ccscsccc" />
    <path
       style="fill:#2a375e;fill-opacity:1;stroke:none;stroke-width:0.26458332px;stroke-linecap:butt;stroke-linejoin:miter;stroke-opacity:1"
       d="m 7.5406251,262.86872 c -0.79375,0 -1.5875,0.79375 -1.5875,1.5875 0,0.79375 0.79375,1.5875 1.5875,1.5875 0.79375,0 1.5875,-0.79375 1.5875,-1.5875 0,-0.79375 -0.79375,-1.5875 -1.5875,-1.5875 z"
       id="path869"
       inkscape:connector-curvature="0" />
    <path
       inkscape:connector-curvature="0"
       style="fill:#bcb66e;fill-opacity:1;stroke:none;stroke-width:0.26458332px;stroke-linecap:butt;stroke-linejoin:miter;stroke-opacity:1"
       d="m 7.5406252,263.39789 c -0.5291667,0 -1.0583334,0.52918 -1.0583334,1.05834 0,0.52916 0.5291667,1.05833 1.0583334,1.05833 0.5291666,0 1.0583333,-0.52917 1.0583333,-1.05833 0,-0.52917 -0.5291667,-1.05834 -1.0583333,-1.05834 z"
       id="path869-9"
       sodipodi:nodetypes="sssss" />
    <path
       inkscape:connector-curvature="0"
       style="fill:#953264;fill-opacity:1;stroke:none;stroke-width:0.26458332px;stroke-linecap:butt;stroke-linejoin:miter;stroke-opacity:1"
       d="m 13.626043,265.51456 -0.264584,0.52918 0.264584,0.52916 h 2.116667 l 0.264583,-0.52916 -0.264583,-0.52918 z m 4.233333,0 -0.264583,0.52918 0.264583,0.52916 h 1.852084 v -1.05834 z"
       id="path910-3" />
    <path
       inkscape:connector-curvature="0"
       style="fill:#953264;fill-opacity:1;stroke:none;stroke-width:0.26458332px;stroke-linecap:butt;stroke-linejoin:miter;stroke-opacity:1"
       d="m 13.626042,263.13331 -0.264584,0.52917 0.264584,0.79375 h 2.116667 l 0.264583,-0.79375 -0.264583,-0.52917 z m 4.233333,0 -0.264583,0.52917 0.264583,0.79375 h 1.852084 v -1.32292 z"
       id="path910-3-0"
       sodipodi:nodetypes="ccccccccccccc" />
    <path
       style="fill:#f2e3bc;fill-opacity:1;stroke:none;stroke-width:0.26458332px;stroke-linecap:butt;stroke-linejoin:miter;stroke-opacity:1"
       d="m 12.303126,270.01248 v -6.87917 h 1.322916 v 6.87917 z"
       id="path904"
       inkscape:connector-curvature="0" />
    <path
       style="fill:#f2e3bc;fill-opacity:1;stroke:none;stroke-width:0.26458332px;stroke-linecap:butt;stroke-linejoin:miter;stroke-opacity:1"
       d="m 15.742709,267.89581 v 1.05833 h 2.116666 v -1.05833 z"
       id="path908"
       inkscape:connector-curvature="0" />
    <path
       style="fill:#f2e3bc;fill-opacity:1;stroke:none;stroke-width:0.26458332px;stroke-linecap:butt;stroke-linejoin:miter;stroke-opacity:1"
       d="m 15.74271,265.51456 v 1.05834 h 2.116666 v -1.05834 z"
       id="path908-2"
       inkscape:connector-curvature="0" />
    <path
       style="fill:#f2e3bc;fill-opacity:1;stroke:none;stroke-width:0.26458332px;stroke-linecap:butt;stroke-linejoin:miter;stroke-opacity:1"
       d="m 15.742709,263.13331 v 1.32292 h 2.116666 v -1.32292 z"
       id="path908-2-5"
       inkscape:connector-curvature="0"
       sodipodi:nodetypes="ccccc" />
    <path
       style="fill:#953264;fill-opacity:1;stroke:none;stroke-width:0.26458332px;stroke-linecap:butt;stroke-linejoin:miter;stroke-opacity:1"
       d="m 25.796875,261.28123 -0.529166,1.05833 0.529166,1.77612 c 2.280444,2.04088 2.910417,4.04471 2.910417,4.04471 h 0.529166 l 0.264584,-0.79375 -0.264584,-0.52915 v -1.05834 l 0.264584,-0.79374 -0.264584,-1.05834 h -1.852083 v -1.05833 h 2.116667 l 0.264583,-0.79375 -0.264583,-0.79374 z"
       id="path958"
       inkscape:connector-curvature="0"
       sodipodi:nodetypes="cccccccccccccccc" />
    <path
       style="fill:#f2e3bc;fill-opacity:1;stroke:none;stroke-width:0.26458332px;stroke-linecap:butt;stroke-linejoin:miter;stroke-opacity:1"
       d="m 25.796875,261.28123 h -4.7625 c 2.111431,0.79178 3.626503,1.81779 4.7625,2.83445 z"
       id="path963"
       inkscape:connector-curvature="0" />
    <path
       style="fill:#953264;fill-opacity:1;stroke:none;stroke-width:0.26458332px;stroke-linecap:butt;stroke-linejoin:miter;stroke-opacity:1"
       d="m 31.882292,261.28123 h 2.116667 l 0.264583,0.79375 -0.264583,0.79375 h -2.116667 l -0.264583,-0.79375 z"
       id="path997"
       inkscape:connector-curvature="0"
       sodipodi:nodetypes="ccccccc" />
    <path
       style="fill:#953264;fill-opacity:1;stroke:none;stroke-width:0.26458332px;stroke-linecap:butt;stroke-linejoin:miter;stroke-opacity:1"
       d="m 31.617709,263.92706 h 2.38125 l 0.264583,1.05833 -0.264583,0.79375 h -2.38125 l -0.264584,-0.79375 z"
       id="path999"
       inkscape:connector-curvature="0"
       sodipodi:nodetypes="ccccccc" />
    <path
       style="fill:#953264;fill-opacity:1;stroke:none;stroke-width:0.26458332px;stroke-linecap:butt;stroke-linejoin:miter;stroke-opacity:1"
       d="m 31.617709,266.83749 h 2.116666 v 1.3229 h -2.116666 l -0.264584,-0.79375 z"
       id="path1001"
       inkscape:connector-curvature="0" />
    <path
       style="fill:#f2e3bc;fill-opacity:1;stroke:none;stroke-width:0.26458332px;stroke-linecap:butt;stroke-linejoin:miter;stroke-opacity:1"
       d="m 29.501042,261.28123 h 2.38125 v 1.5875 h -2.38125 z"
       id="path965"
       inkscape:connector-curvature="0" />
    <path
       style="fill:#f2e3bc;fill-opacity:1;stroke:none;stroke-width:0.26458332px;stroke-linecap:butt;stroke-linejoin:miter;stroke-opacity:1"
       d="m 29.236459,263.92706 h 2.38125 v 1.85208 h -2.38125 z"
       id="path965-8"
       inkscape:connector-curvature="0"
       sodipodi:nodetypes="ccccc" />
    <path
       style="fill:#f2e3bc;fill-opacity:1;stroke:none;stroke-width:0.26458332px;stroke-linecap:butt;stroke-linejoin:miter;stroke-opacity:1"
       d="m 29.236459,266.83749 h 2.38125 v 1.3229 h -2.38125 z"
       id="path965-8-8"
       inkscape:connector-curvature="0"
       sodipodi:nodetypes="ccccc" />
    <path
       style="fill:#f2e3bc;fill-opacity:1;stroke:none;stroke-width:0.26458332px;stroke-linecap:butt;stroke-linejoin:miter;stroke-opacity:1"
       d="m 33.998959,261.28123 h 3.704166 v 1.5875 h -3.704166 z"
       id="path1005"
       inkscape:connector-curvature="0" />
    <path
       style="fill:#f2e3bc;fill-opacity:1;stroke:none;stroke-width:0.26458332px;stroke-linecap:butt;stroke-linejoin:miter;stroke-opacity:1"
       d="m 33.998959,263.92706 h 2.910416 c 0,0 -0.79375,1.85208 -2.910416,1.85208 z"
       id="path1007"
       inkscape:connector-curvature="0" />
    <path
       style="fill:#256f4e;fill-opacity:1;stroke:none;stroke-width:0.26458332px;stroke-linecap:butt;stroke-linejoin:miter;stroke-opacity:1"
       d="m 19.711459,286.15206 h -4.7625 v 8.73125 H 9.6572917 v 1.32292 h 6.8791673 c 1.058333,0 1.322917,-1.32292 1.322917,-2.64584 0,-1.32291 0,-5.55625 0,-5.55625 h 1.852083 z"
       id="path1009"
       inkscape:connector-curvature="0" />
    <path
       style="fill:#256f4e;fill-opacity:1;stroke:none;stroke-width:0.26458332px;stroke-linecap:butt;stroke-linejoin:miter;stroke-opacity:1"
       d="m 13.361459,293.03123 c 0,0 0,-1.5875 0,-2.11667 0,-0.52917 -0.529167,-1.5875 -1.5875,-1.5875 -1.058333,0 -4.4979173,0 -4.7625006,0 -0.2645833,0 -1.3229166,-0.52917 -1.3229166,-1.32292 0,-0.79375 0,-3.96875 0,-3.96875 h -1.5875 c 0,0 0,5.02709 0,6.08542 0,1.05833 1.8520833,2.91042 3.4395833,2.91042 1.5875,0 5.8208339,0 5.8208339,0 z"
       id="path1011"
       inkscape:connector-curvature="0" />
    <path
       style="fill:#953264;fill-opacity:1;stroke:none;stroke-width:0.26458332px;stroke-linecap:butt;stroke-linejoin:miter;stroke-opacity:1"
       d="m 0.39687517,281.65414 v -2.91041 l 1.32291683,-0.26459 1.0583331,0.26459 h 1.3229166 l 0.5291667,-0.26459 0.2645834,0.26459 -1e-7,2.38125 -0.2645832,0.79375 H 1.719792 Z"
       id="path1015-3"
       inkscape:connector-curvature="0"
       sodipodi:nodetypes="ccccccccccc" />
    <path
       style="fill:#f2e3bc;fill-opacity:1;stroke:none;stroke-width:0.26458332px;stroke-linecap:butt;stroke-linejoin:miter;stroke-opacity:1"
       d="m 4.8947917,281.12498 -0.5291666,0.52916 H 0.39687516 c 0,1.32292 1.05833314,1.85209 3.96874994,1.85209 v -1.05834 h 0.79375 0.79375 v 1.05834 c 1.5874999,0 3.4395832,-0.52917 3.4395832,-1.85209 H 6.746875 L 6.2177084,281.12498 H 5.1593751 Z"
       id="path1013"
       inkscape:connector-curvature="0" />
    <path
       style="fill:#f2e3bc;fill-opacity:1;stroke:none;stroke-width:0.26458332px;stroke-linecap:butt;stroke-linejoin:miter;stroke-opacity:1"
       d="m 7.0114584,276.36248 v 2.38126 h -0.79375 v -2.38126 z"
       id="path1017"
       inkscape:connector-curvature="0" />
    <path
       style="fill:#f2e3bc;fill-opacity:1;stroke:none;stroke-width:0.26458332px;stroke-linecap:butt;stroke-linejoin:miter;stroke-opacity:1"
       d="m 8.0697917,278.74374 1e-7,-2.11667 c 10e-8,-1.32293 1.3229167,-1.5875 1.3229167,-1.5875 v 3.70417 z"
       id="path1019"
       inkscape:connector-curvature="0"
       sodipodi:nodetypes="csccc" />
    <path
       style="fill:#f2e3bc;fill-opacity:1;stroke:none;stroke-width:0.26458332px;stroke-linecap:butt;stroke-linejoin:miter;stroke-opacity:1"
       d="m 4.1010418,276.36248 v 2.38126 h 0.79375 v -2.38126 z"
       id="path1017-7"
       inkscape:connector-curvature="0"
       sodipodi:nodetypes="ccccc" />
    <path
       style="fill:#f2e3bc;fill-opacity:1;stroke:none;stroke-width:0.26458332px;stroke-linecap:butt;stroke-linejoin:miter;stroke-opacity:1"
       d="m 2.7781252,278.74374 v -1.5875 c 0,-1.32292 -2.38125003,-2.11667 -2.38125003,-2.11667 v 3.70417 z"
       id="path1019-4"
       inkscape:connector-curvature="0"
       sodipodi:nodetypes="csccc" />
    <path
       style="fill:#f2e3bc;fill-opacity:1;stroke:none;stroke-width:0.26458332px;stroke-linecap:butt;stroke-linejoin:miter;stroke-opacity:1"
       d="m 19.711459,272.92289 v 2.38125 l -0.79375,0.79375 h -6.879167 c 0,0 0,-1.85208 0,-2.11666 0,-0.26459 0.264584,-1.05834 1.058334,-1.05834 0.793749,0 6.614583,0 6.614583,0 z"
       id="path1046"
       inkscape:connector-curvature="0" />
    <path
       style="fill:#f2e3bc;fill-opacity:1;stroke:none;stroke-width:0.26458332px;stroke-linecap:butt;stroke-linejoin:miter;stroke-opacity:1"
       d="m 18.917709,278.47914 v 3.175 h -4.233334 v -3.175 z"
       id="path1050"
       inkscape:connector-curvature="0" />
    <path
       style="fill:#f2e3bc;fill-opacity:1;stroke:none;stroke-width:0.26458332px;stroke-linecap:butt;stroke-linejoin:miter;stroke-opacity:1"
       d="m 13.361459,278.47914 v 3.175 h -1.322917 v -3.175 z"
       id="path1052"
       inkscape:connector-curvature="0" />
    <path
       style="fill:#f2e3bc;fill-opacity:1;stroke:none;stroke-width:0.26458332px;stroke-linecap:butt;stroke-linejoin:miter;stroke-opacity:1"
       d="m 13.361459,284.03539 v 2.11667 h -1.322917 v -2.11667 z"
       id="path1054"
       inkscape:connector-curvature="0"
       sodipodi:nodetypes="ccccc" />
    <path
       style="fill:#f2e3bc;fill-opacity:1;stroke:none;stroke-width:0.26458332px;stroke-linecap:butt;stroke-linejoin:miter;stroke-opacity:1"
       d="m 14.684375,283.24164 h 1.5875 v 1.5875 c 0,0 -1.5875,-0.26458 -1.5875,-1.5875 z"
       id="path1056"
       inkscape:connector-curvature="0" />
    <path
       style="fill:#f2e3bc;fill-opacity:1;stroke:none;stroke-width:0.26458332px;stroke-linecap:butt;stroke-linejoin:miter;stroke-opacity:1"
       d="m 17.594792,283.24164 h 1.322917 v 1.5875 h -1.322917 z"
       id="path1058"
       inkscape:connector-curvature="0"
       sodipodi:nodetypes="ccccc" />
    <path
       style="fill:#953264;fill-opacity:1;stroke:none;stroke-width:0.26458332px;stroke-linecap:butt;stroke-linejoin:miter;stroke-opacity:1"
       d="m 32.411458,281.65414 0.529167,0.26459 0.529167,-0.26459 v -2.91041 l -0.529167,-0.26459 -0.529167,0.26459 z"
       id="path1097"
       inkscape:connector-curvature="0"
       sodipodi:nodetypes="ccccccc" />
    <path
       style="fill:#953264;fill-opacity:1;stroke:none;stroke-width:0.26458332px;stroke-linecap:butt;stroke-linejoin:miter;stroke-opacity:1"
       d="m 32.411458,286.68124 0.529167,0.26458 0.529167,-0.26458 v -2.91042 l -0.529167,-0.26459 -0.529167,0.26459 z"
       id="path1093"
       inkscape:connector-curvature="0"
       sodipodi:nodetypes="ccccccc" />
    <path
       style="fill:#953264;fill-opacity:1;stroke:none;stroke-width:0.26458332px;stroke-linecap:butt;stroke-linejoin:miter;stroke-opacity:1"
       d="m 33.469792,289.06248 -0.529167,-0.26459 -0.529167,0.26459 v 2.64583 h 1.058334 z"
       id="path1089"
       inkscape:connector-curvature="0"
       sodipodi:nodetypes="cccccc" />
    <path
       style="fill:#953264;fill-opacity:1;stroke:none;stroke-width:0.26458332px;stroke-linecap:butt;stroke-linejoin:miter;stroke-opacity:1"
       d="m 36.594148,289.06248 -1.00769,-0.26459 -1.058333,0.26459 v 2.64583 h 0.264583 c 0.498039,0 1.661845,-1.18446 1.80144,-2.64583 z"
       id="path1087"
       inkscape:connector-curvature="0"
       sodipodi:nodetypes="ccccsc" />
    <path
       style="fill:#953264;fill-opacity:1;stroke:none;stroke-width:0.26458332px;stroke-linecap:butt;stroke-linejoin:miter;stroke-opacity:1"
       d="m 36.644792,283.77081 -1.058334,-0.26458 -1.058333,0.26458 v 2.91042 l 1.058333,0.26458 1.058334,-0.26458 z"
       id="path1083"
       inkscape:connector-curvature="0"
       sodipodi:nodetypes="ccccccc" />
    <path
       style="fill:#953264;fill-opacity:1;stroke:none;stroke-width:0.26458332px;stroke-linecap:butt;stroke-linejoin:miter;stroke-opacity:1"
       d="m 36.644792,278.74374 -1.058334,-0.26459 -1.058333,0.26459 v 2.91041 l 1.058333,0.26459 1.058334,-0.26459 z"
       id="path1079"
       inkscape:connector-curvature="0"
       sodipodi:nodetypes="ccccccc" />
    <path
       style="fill:#953264;fill-opacity:1;stroke:none;stroke-width:0.26458332px;stroke-linecap:butt;stroke-linejoin:miter;stroke-opacity:1"
       d="m 36.644792,273.45206 -2.38125,-0.52917 -1.852084,0.52917 v 2.64583 l 0.529167,0.26459 0.529167,-0.26459 h 1.058333 l 1.058333,0.26459 1.058334,-0.26459 z"
       id="path1075"
       inkscape:connector-curvature="0"
       sodipodi:nodetypes="cccccccccc" />
    <path
       style="fill:#f2e3bc;fill-opacity:1;stroke:none;stroke-width:0.26458332px;stroke-linecap:butt;stroke-linejoin:miter;stroke-opacity:1"
       d="m 32.411458,278.74374 h 1.058334 v -2.64585 h -1.058334 z"
       id="path1099"
       inkscape:connector-curvature="0" />
    <path
       style="fill:#f2e3bc;fill-opacity:1;stroke:none;stroke-width:0.26458332px;stroke-linecap:butt;stroke-linejoin:miter;stroke-opacity:1"
       d="m 32.411458,283.77081 h 1.058334 v -2.11667 h -1.058334 z"
       id="path1095"
       inkscape:connector-curvature="0" />
    <path
       style="fill:#f2e3bc;fill-opacity:1;stroke:none;stroke-width:0.26458332px;stroke-linecap:butt;stroke-linejoin:miter;stroke-opacity:1"
       d="m 33.469792,289.06248 v -2.38125 h -1.058334 v 2.38125 z"
       id="path1091"
       inkscape:connector-curvature="0" />
    <path
       style="fill:#f2e3bc;fill-opacity:1;stroke:none;stroke-width:0.26458332px;stroke-linecap:butt;stroke-linejoin:miter;stroke-opacity:1"
       d="m 36.644792,286.68124 h -2.116667 v 2.38125 h 2.066023 c 0.0087,-0.0913 0.05064,-0.1712 0.05064,-0.26459 z"
       id="path1085"
       inkscape:connector-curvature="0" />
    <path
       style="fill:#f2e3bc;fill-opacity:1;stroke:none;stroke-width:0.26458332px;stroke-linecap:butt;stroke-linejoin:miter;stroke-opacity:1"
       d="m 36.644792,281.65414 h -2.116667 v 2.11667 h 2.116667 z"
       id="path1081"
       inkscape:connector-curvature="0" />
    <path
       style="fill:#f2e3bc;fill-opacity:1;stroke:none;stroke-width:0.26458332px;stroke-linecap:butt;stroke-linejoin:miter;stroke-opacity:1"
       d="m 36.644792,276.09789 h -2.116667 v 2.64585 h 2.116667 z"
       id="path1077"
       inkscape:connector-curvature="0" />
    <path
       style="fill:#f2e3bc;fill-opacity:1;stroke:none;stroke-width:0.26458332px;stroke-linecap:butt;stroke-linejoin:miter;stroke-opacity:1"
       d="m 29.501042,269.74789 v 3.43959 h 1.852083 v -1.05834 h 1.058333 v 1.32292 h 4.233334 v -2.64582 c 0,-0.52918 -0.529167,-1.05834 -1.058334,-1.05834 z"
       id="path1070"
       inkscape:connector-curvature="0" />
    <path
       style="fill:#953264;fill-opacity:1;stroke:none;stroke-width:0.26458332px;stroke-linecap:butt;stroke-linejoin:miter;stroke-opacity:1"
       d="m 34.528125,296.47081 h -1.058333 v -2.11667 h 3.175 v 2.11667 h -1.058333 v -0.79375 h -1.058334 z"
       id="path1101"
       inkscape:connector-curvature="0" />
    <path
       style="fill:#953264;fill-opacity:1;stroke:none;stroke-width:0.26458332px;stroke-linecap:butt;stroke-linejoin:miter;stroke-opacity:1"
       d="m 4.6302085,296.47081 h -1.058333 v -1.85208 h 4.233333 v 1.85208 H 5.9531252 v -0.79375 H 4.6302085 Z"
       id="path1101-0"
       inkscape:connector-curvature="0"
       sodipodi:nodetypes="ccccccccc" />
  </g>
</svg>
