<?xml version="1.0" encoding="UTF-8" standalone="no"?>
<!-- Created with Inkscape (http://www.inkscape.org/) -->

<svg
   xmlns:dc="http://purl.org/dc/elements/1.1/"
   xmlns:cc="http://creativecommons.org/ns#"
   xmlns:rdf="http://www.w3.org/1999/02/22-rdf-syntax-ns#"
   xmlns:svg="http://www.w3.org/2000/svg"
   xmlns="http://www.w3.org/2000/svg"
   xmlns:sodipodi="http://sodipodi.sourceforge.net/DTD/sodipodi-0.dtd"
   xmlns:inkscape="http://www.inkscape.org/namespaces/inkscape"
   width="144"
   height="144"
   viewBox="0 0 38.099999 38.100001"
   version="1.1"
   id="svg8"
   inkscape:version="0.92.4 (5da689c313, 2019-01-14)"
   sodipodi:docname="FUIOS-Iodrome Icon.svg">
  <defs
     id="defs2" />
  <sodipodi:namedview
     id="base"
     pagecolor="#ffffff"
     bordercolor="#666666"
     borderopacity="1.0"
     inkscape:pageopacity="0.0"
     inkscape:pageshadow="2"
     inkscape:zoom="1.979899"
     inkscape:cx="108.99569"
     inkscape:cy="93.120317"
     inkscape:document-units="px"
     inkscape:current-layer="layer2"
     showgrid="false"
     units="px"
     inkscape:window-width="1304"
     inkscape:window-height="745"
     inkscape:window-x="-8"
     inkscape:window-y="-8"
     inkscape:window-maximized="1"
     inkscape:snap-smooth-nodes="true"
     showguides="true"
     inkscape:guide-bbox="true">
    <inkscape:grid
       type="xygrid"
       id="grid865" />
  </sodipodi:namedview>
  <metadata
     id="metadata5">
    <rdf:RDF>
      <cc:Work
         rdf:about="">
        <dc:format>image/svg+xml</dc:format>
        <dc:type
           rdf:resource="http://purl.org/dc/dcmitype/StillImage" />
        <dc:title></dc:title>
      </cc:Work>
    </rdf:RDF>
  </metadata>
  <g
     inkscape:groupmode="layer"
     id="layer2"
     inkscape:label="Layer 2">
    <path
       style="fill:#817c71;fill-opacity:1;stroke:none;stroke-width:0.26458332px;stroke-linecap:butt;stroke-linejoin:miter;stroke-opacity:1"
       d="m 15.610417,15.08125 -1.058334,1.058333 -2.38125,0.529167 H 5.5562501 l 0.2645834,-1.5875 0.5291666,-0.529167 H 14.2875 Z"
       id="path999"
       inkscape:connector-curvature="0"
       sodipodi:nodetypes="cccccccc" />
    <path
       style="fill:#949c9e;fill-opacity:1;stroke:none;stroke-width:0.26458332px;stroke-linecap:butt;stroke-linejoin:miter;stroke-opacity:1"
       d="m 19.05,11.641667 h -5.820833 l -3.175,2.116666 H 7.1437503 l -3.9687499,3.96875 c 0,0 0.2645833,0.529167 0.7937499,0.529167 0.5291667,0 1.3229167,-1.058333 1.5875,-1.058333 H 13.49375 l 1.058333,-1.058334 H 6.3500002 V 15.08125 h 9.2604168 z"
       id="path997"
       inkscape:connector-curvature="0"
       sodipodi:nodetypes="cccccsscccccc" />
    <path
       style="fill:#29363f;fill-opacity:1;stroke:none;stroke-width:0.26458332px;stroke-linecap:butt;stroke-linejoin:miter;stroke-opacity:1"
       d="M 17.991666,34.660416 18.25625,34.395833 17.991666,33.962784 5.2916668,34.660416 Z"
       id="path1040"
       inkscape:connector-curvature="0"
       sodipodi:nodetypes="ccccc" />
    <path
       style="fill:#29363f;fill-opacity:1;stroke:none;stroke-width:0.26458332px;stroke-linecap:butt;stroke-linejoin:miter;stroke-opacity:1"
       d="m 23.547918,15.08125 v 2.116666 l 0.264583,0.264584 0.529167,-0.264584 V 15.08125 Z m -6.35,1.852083 v 1.058333 h 3.704166 V 19.05 h -3.704166 v 1.058333 h 5.027083 v -3.175 z m -1.322917,6.35 v 1.058333 h 5.027083 V 25.4 h -5.027083 v 1.058333 h 6.614583 v -3.175 z"
       id="path1097"
       inkscape:connector-curvature="0" />
    <path
       style="fill:#949c9e;fill-opacity:1;stroke:none;stroke-width:0.26458332px;stroke-linecap:butt;stroke-linejoin:miter;stroke-opacity:1"
       d="M 25.135416,17.991666 25.4,17.4625 25.135416,17.197916 h -1.5875 v 0.79375 z"
       id="path1053"
       inkscape:connector-curvature="0"
       sodipodi:nodetypes="cccccc" />
    <path
       style="opacity:1;fill:#d63929;fill-opacity:1;stroke:none;stroke-width:0.26458332px;stroke-linecap:butt;stroke-linejoin:miter;stroke-opacity:1"
       d="m 2.116667,1.0583336 c 0,0 -1.0583333,4e-7 -1.0583333,1.0583333 v 6.35 c 0,0.5291669 0.5291666,1.0583333 1.3229166,1.0583333 h 1.8520833 c 0,0 0.2645833,2e-7 0.2645833,0.2645833 v 0.7937495 c 0,0 0,0.264584 -0.2645833,0.264584 H 2.116667 v 6.085416 L 6.6145836,12.435417 H 8.4666669 8.6496014 C 8.2053845,12.141782 7.9379723,11.644993 7.9375002,11.1125 c 0,-0.876752 0.7107479,-1.5874998 1.5875,-1.5874998 0.8767518,0 1.5874998,0.7107478 1.5874998,1.5874998 -7.14e-4,0.672128 -0.424644,1.270957 -1.058333,1.494999 v 1.150834 c 0,0.794438 2.38125,2.910417 2.910417,2.910417 V 12.7 l 1.852083,-2.38125 h 3.175 l 0.529166,-0.7937498 -0.529166,-0.79375 c -0.264583,0 -1.058334,-1.3229169 -1.058334,-2.38125 V 3.9687503 h -0.79375 c -0.529166,0 -2.116666,1.3229158 -2.116666,1.5874999 0,0.2645831 -0.264584,0.2645834 -0.264584,0.2645834 h -2.116666 c 0,0 -0.264583,-3e-7 -0.264583,-0.2645834 v -0.79375 c 0,-0.5291666 3.174999,-2.6458333 4.762499,-2.6458333 1.5875,0 2.38125,-1.0583333 2.38125,-1.0583333 z M 26.19375,4.7625002 c -0.793749,0 -1.322917,0.7937508 -1.322917,1.3229167 v 1.3229166 c 0,0.79375 -1.058333,1.3229167 -1.5875,1.3229167 l -0.79375,0.2645833 -0.79375,-0.2645833 h -1.5875 l -0.529166,0.79375 0.529166,0.7937498 H 22.489583 25.4 c 0.529167,0 1.322917,0.79375 1.322917,1.322917 v 5.556249 h -1.5875 v 0.79375 h 2.910416 C 28.575,17.991666 28.575,17.4625 28.575,17.4625 v -6.35 c 0,-0.529167 0.529167,-0.79375 0.79375,-0.79375 h 2.910417 c 0.529166,0 0.79375,0.264583 0.79375,0.79375 v 3.96875 l 0.79375,1.058333 -0.79375,0.79375 v 2.38125 h -2.38125 l -0.79375,0.529167 -1.058334,-0.529167 c -0.529166,0 -1.058333,0.529166 -1.058333,1.058333 v 3.175 L 29.633333,25.4 v -3.439584 h 3.175 c 0.264584,0 0.264584,0.264584 0.264584,0.264584 v 1.058333 c 0,0.264584 -0.264584,0.264583 -0.264584,0.264583 h -1.5875 c -0.264583,0 -0.264583,0.264584 -0.264583,0.264584 v 2.38125 h 2.116667 v 3.439583 l -3.704167,3.704167 -0.601356,0.703344 0.601356,0.619572 h 2.910417 l 3.439583,-3.439583 v -0.79375 L 35.189583,29.36875 35.71875,28.575 V 21.43125 L 35.454167,20.6375 35.71875,19.314583 v -6.35 L 34.925,11.90625 35.71875,10.583333 V 6.0854169 c 0,-0.79375 -0.529167,-1.3229167 -1.322917,-1.3229167 h -3.704166 l -0.79375,0.79375 -1.058334,-0.79375 z m 1.322917,28.6768028 -2.910417,0.159679 -0.79375,0.532268 -0.79375,-0.444934 -5.027083,0.276468 v 0.697632 h 9.525 l 0.434313,-0.536051 z"
       id="path1081"
       inkscape:connector-curvature="0"
       sodipodi:nodetypes="cssscscsccccccsccsccccccscssccsssccssscccccccsscccscsssscccccccscccscscsccccccccccccccccccsscccsccccccccc" />
    <path
       style="fill:#29363f;fill-opacity:1;stroke:none;stroke-width:0.26458332px;stroke-linecap:butt;stroke-linejoin:miter;stroke-opacity:1"
       d="m 12.964583,21.431249 c -3.1325487,3.553602 -2.259728,9.354604 4.233334,8.466667 -6.72972,3.620366 -10.6522075,-5.428444 -4.233334,-8.466667 z"
       id="path1690"
       inkscape:connector-curvature="0"
       sodipodi:nodetypes="ccc" />
    <path
       style="opacity:1;fill:#bdad63;fill-opacity:1;stroke:none;stroke-width:0.26458332;stroke-linecap:round;stroke-linejoin:round;stroke-miterlimit:4;stroke-dasharray:none;stroke-dashoffset:0;stroke-opacity:1;paint-order:normal"
       d="m 25.399999,2.1166669 v 1.0583334 h 1.058334 V 2.1166669 Z m 3.175,0 v 1.0583334 h 1.058334 V 2.1166669 Z m 3.175,0 v 1.0583334 h 1.058333 V 2.1166669 Z m 3.175,1.0583334 v 1.0583333 h 1.058333 V 3.1750003 Z m 1.058333,3.4395832 v 1.0583334 h 1.058334 V 6.6145835 Z m 0,2.9104167 v 1.0583328 h 1.058334 V 9.5250002 Z m 0,3.4395828 v 1.058333 h 1.058334 v -1.058333 z m 0,3.175 v 1.058333 h 1.058334 v -1.058333 z m 0,3.175 v 1.058333 h 1.058334 v -1.058333 z m 0,3.175 v 1.058333 h 1.058334 v -1.058333 z m 0,3.175 v 1.058333 h 1.058334 v -1.058333 z m 0,3.175 v 1.058333 h 1.058334 v -1.058333 z m 0,4.233333 v 1.058334 h 1.058334 V 33.072916 Z M 7.6729167,35.983333 v 1.058333 h 1.0583334 v -1.058333 z m 4.2333323,0 v 1.058333 h 1.058334 v -1.058333 z m 4.233334,0 v 1.058333 h 1.058333 v -1.058333 z m 4.233333,0 v 1.058333 h 1.058333 v -1.058333 z m 4.233333,0 v 1.058333 h 1.058334 v -1.058333 z m 4.233334,0 v 1.058333 h 1.058333 v -1.058333 z m 4.497916,0 v 1.058333 h 1.058333 v -1.058333 z"
       id="rect950"
       inkscape:connector-curvature="0" />
    <path
       style="opacity:1;fill:#949c9e;fill-opacity:1;stroke:none;stroke-width:0.26458332;stroke-linecap:round;stroke-linejoin:round;stroke-miterlimit:4;stroke-dasharray:none;stroke-dashoffset:0;stroke-opacity:1;paint-order:normal"
       d="m 29.897918,11.641666 h 2.116666 v 2.116667 h -2.116666 z"
       id="rect1074"
       inkscape:connector-curvature="0" />
    <path
       style="opacity:1;fill:#949c9e;fill-opacity:1;stroke:none;stroke-width:0.26458332;stroke-linecap:round;stroke-linejoin:round;stroke-miterlimit:4;stroke-dasharray:none;stroke-dashoffset:0;stroke-opacity:1;paint-order:normal"
       d="m 29.897918,14.552083 h 2.116666 v 1.5875 h -2.116666 z"
       id="rect1076"
       inkscape:connector-curvature="0" />
    <path
       style="opacity:1;fill:#949c9e;fill-opacity:1;stroke:none;stroke-width:0.26458332;stroke-linecap:round;stroke-linejoin:round;stroke-miterlimit:4;stroke-dasharray:none;stroke-dashoffset:0;stroke-opacity:1;paint-order:normal"
       d="m 29.897918,16.668748 h 2.116666 v 1.322917 h -2.116666 z"
       id="rect1078"
       inkscape:connector-curvature="0" />
    <path
       style="fill:#949c9e;fill-opacity:1;stroke:none;stroke-width:0.26458332px;stroke-linecap:butt;stroke-linejoin:miter;stroke-opacity:1"
       d="m 28.839584,26.458333 -2.116666,-2.116666 -2.910417,-1e-6 v 2.116667 z"
       id="path1091"
       inkscape:connector-curvature="0"
       sodipodi:nodetypes="ccccc" />
    <path
       style="fill:#8e2f31;fill-opacity:1;stroke:none;stroke-width:0.26458332px;stroke-linecap:butt;stroke-linejoin:miter;stroke-opacity:1"
       d="m 3.9687503,2.9104169 v 2.38125 h 2.38125 v -2.38125 z M 28.839583,4.7625002 v 1.5875 h 1.852084 v -1.5875 z m 4.233334,1.3229167 v 2.1166666 h 2.116666 V 6.0854169 Z M 2.116667,6.3500002 v 2.38125 h 2.3812499 v -2.38125 z m 5.2916666,0 V 8.4666669 H 9.5250002 V 6.3500002 Z m 17.9916664,0 v 2.1166667 h 2.116667 V 6.3500002 Z M 12.964584,7.4083335 v 1.8520834 h 1.852083 V 7.4083335 Z m 16.933333,0.5291667 v 1.8520833 h 2.116666 V 7.9375002 Z m -11.90625,0.79375 V 10.31875 h 2.116666 V 8.7312502 Z m 3.704166,0 v 0.79375 h 1.5875 v -0.79375 z M 34.13125,10.583333 v 2.38125 h 1.5875 v -2.38125 z M 3.1750003,11.90625 v 1.852083 L 5.0270836,11.90625 Z m 29.8979167,3.175 v 1.852083 h 1.5875 V 15.08125 Z m -4.233334,4.233333 v 1.5875 h 1.852084 v -1.5875 z m 5.291667,0 v 2.116667 h 1.5875 V 19.314583 Z M 33.3375,23.8125 v 2.116666 h 2.116667 V 23.8125 Z m 0.79375,4.7625 v 1.852083 h 1.5875 V 28.575 Z m -4.7625,4.7625 -1.852083,0.101803 v 1.221113 h 1.852083 z m -4.7625,0.261482 -1.5875,0.08733 v 0.709517 h 1.5875 z"
       id="path1042"
       inkscape:connector-curvature="0" />
    <circle
       style="opacity:1;fill:#bdad63;fill-opacity:1;stroke:none;stroke-width:0.52916664;stroke-linecap:round;stroke-linejoin:round;stroke-miterlimit:4;stroke-dasharray:none;stroke-dashoffset:0;stroke-opacity:1;paint-order:normal"
       id="path1088"
       cx="9.5249996"
       cy="11.1125"
       r="1.0583333" />
  </g>
</svg>
